<svg width="30" height="30" viewBox="0 0 30 30" fill="none" xmlns="http://www.w3.org/2000/svg">
<g clip-path="url(#clip0_208_4530)">
<path d="M19.7846 25.4913C19.3769 25.4913 19.0073 25.2518 18.8383 24.8756L18.8383 24.8754L14.5882 15.4109L5.12369 11.1608C4.73979 10.9884 4.4982 10.6072 4.50811 10.1897C4.51772 9.78655 4.76539 9.431 5.13916 9.28399L28.6107 0.0523128C28.9883 -0.0961638 29.4202 -0.00364427 29.7115 0.287742C30.0028 0.579129 30.0951 1.01114 29.9467 1.38837L20.7151 24.86C20.568 25.2337 20.2125 25.4814 19.8093 25.491C19.8011 25.4912 19.7928 25.4913 19.7846 25.4913ZM7.28176 10.2672L15.5111 13.9626C15.7452 14.0679 15.9317 14.2544 16.0365 14.4881L19.7319 22.7173L27.8032 2.19585L7.28176 10.2672Z" fill="white"/>
<path d="M15.2129 15.6363C14.9955 15.6363 14.778 15.5533 14.6121 15.3874C14.2803 15.0556 14.2803 14.5177 14.6121 14.1859L19.891 8.90707C20.2227 8.57525 20.7607 8.57525 21.0925 8.90707C21.4243 9.23888 21.4243 9.77677 21.0925 10.1086L15.8137 15.3874C15.6478 15.5533 15.4303 15.6363 15.2129 15.6363Z" fill="white"/>
<path d="M5.21291 25.638C4.99546 25.638 4.77802 25.555 4.61214 25.3892C4.28033 25.0574 4.28033 24.5194 4.61214 24.1876L10.7004 18.0994C11.0321 17.7676 11.5702 17.7676 11.9019 18.0994C12.2337 18.4312 12.2337 18.9692 11.9019 19.3009L5.81367 25.3892C5.64779 25.555 5.43035 25.638 5.21291 25.638Z" fill="white"/>
<path d="M9.31837 29.9894C9.10093 29.9894 8.88349 29.9065 8.71761 29.7406C8.3858 29.4088 8.3858 28.8708 8.71761 28.5391L12.6397 24.617C12.9715 24.2852 13.5095 24.2852 13.8412 24.617C14.173 24.9487 14.173 25.4867 13.8412 25.8185L9.91914 29.7406C9.75326 29.9065 9.53582 29.9894 9.31837 29.9894Z" fill="white"/>
<path d="M0.85353 21.5266C0.636089 21.5266 0.418706 21.4437 0.252769 21.2777C-0.0790479 20.946 -0.0790479 20.408 0.252769 20.0762L4.17486 16.1541C4.50667 15.8223 5.04457 15.8223 5.37638 16.1541C5.7082 16.4859 5.7082 17.0239 5.37638 17.3557L1.45429 21.2777C1.28841 21.4436 1.07091 21.5266 0.85353 21.5266Z" fill="white"/>
</g>
<defs>
<clipPath id="clip0_208_4530">
<rect width="30" height="30" fill="white"/>
</clipPath>
</defs>
</svg>
