<svg width="20" height="20" viewBox="0 0 20 20" fill="none" xmlns="http://www.w3.org/2000/svg">
<g clip-path="url(#clip0_14_2)">
<path d="M6.44378 13.2554H6.4447L6.44699 13.2552H17.0703C17.3318 13.2552 17.5618 13.0624 17.6337 12.783L19.9774 3.66845C20.0279 3.47195 19.9925 3.2607 19.8819 3.0976C19.7711 2.9345 19.5979 2.83854 19.4141 2.83854H5.09247L4.67361 0.744188C4.61395 0.446302 4.37622 0.234375 4.10156 0.234375H0.585937C0.262298 0.234375 0 0.525818 0 0.885416C0 1.24501 0.262298 1.53646 0.585937 1.53646H3.63159C3.70575 1.90759 5.63598 11.5589 5.74707 12.1142C5.12436 12.415 4.6875 13.1048 4.6875 13.9062C4.6875 14.9832 5.47607 15.8594 6.44531 15.8594H17.0703C17.3939 15.8594 17.6562 15.5679 17.6562 15.2083C17.6562 14.8487 17.3939 14.5573 17.0703 14.5573H6.44531C6.12228 14.5573 5.85937 14.2652 5.85937 13.9062C5.85937 13.5478 6.12136 13.2562 6.44378 13.2554ZM18.6372 4.14062L16.6283 11.9531H6.91528L5.35278 4.14062H18.6372Z" fill="white"/>
<path d="M5.85938 17.8125C5.85938 18.8894 6.64795 19.7656 7.61719 19.7656C8.58642 19.7656 9.375 18.8894 9.375 17.8125C9.375 16.7356 8.58642 15.8594 7.61719 15.8594C6.64795 15.8594 5.85938 16.7356 5.85938 17.8125ZM7.61719 17.1615C7.94021 17.1615 8.20312 17.4536 8.20312 17.8125C8.20312 18.1714 7.94021 18.4635 7.61719 18.4635C7.29416 18.4635 7.03125 18.1714 7.03125 17.8125C7.03125 17.4536 7.29416 17.1615 7.61719 17.1615Z" fill="white"/>
<path d="M14.1406 17.8125C14.1406 18.8894 14.9292 19.7656 15.8984 19.7656C16.8677 19.7656 17.6562 18.8894 17.6562 17.8125C17.6562 16.7356 16.8677 15.8594 15.8984 15.8594C14.9292 15.8594 14.1406 16.7356 14.1406 17.8125ZM15.8984 17.1615C16.2215 17.1615 16.4844 17.4536 16.4844 17.8125C16.4844 18.1714 16.2215 18.4635 15.8984 18.4635C15.5754 18.4635 15.3125 18.1714 15.3125 17.8125C15.3125 17.4536 15.5754 17.1615 15.8984 17.1615Z" fill="white"/>
</g>
<defs>
<clipPath id="clip0_14_2">
<rect width="20" height="20" fill="white"/>
</clipPath>
</defs>
</svg>
