<svg width="68" height="68" viewBox="0 0 68 68" fill="none" xmlns="http://www.w3.org/2000/svg">
<g clip-path="url(#clip0_143_1047)">
<path d="M60.4253 5.71839C59.9484 5.24186 59.1754 5.24146 58.6984 5.71839L46.0375 18.3789C45.5604 18.8558 45.5604 19.6288 46.0374 20.1058C46.2759 20.3442 46.5883 20.4634 46.9009 20.4634C47.2133 20.4634 47.5259 20.3442 47.7645 20.1058L60.4253 7.44535C60.9021 6.96829 60.9021 6.19518 60.4253 5.71839Z" fill="#DA592F"/>
<path d="M63.8703 9.10707C63.3933 8.63041 62.6203 8.63041 62.1434 9.10707L49.4826 21.7678C49.0058 22.2449 49.0058 23.0179 49.4825 23.4948C49.721 23.7332 50.0337 23.8523 50.346 23.8523C50.6584 23.8523 50.971 23.7332 51.2096 23.4948L63.8703 10.8339C64.3473 10.357 64.3473 9.58387 63.8703 9.10707Z" fill="#DA592F"/>
<path d="M51.9249 30.4869L67.6417 14.7701C68.1186 14.293 68.1186 13.5201 67.6417 13.0431C67.1646 12.5666 66.3916 12.5662 65.9147 13.0431L50.1982 28.7599C48.2619 30.696 45.3013 31.204 42.8311 30.0244C42.3397 29.7899 41.7529 29.9085 41.3916 30.3157L36.0513 36.3325C36.0492 36.3347 36.0468 36.3367 36.0447 36.3391C36.0425 36.3415 36.0409 36.344 36.0388 36.3464L12.9575 62.3507C12.9516 62.3573 12.9458 62.3641 12.9401 62.3709C12.864 62.4603 12.7921 62.5388 12.7193 62.6117C11.1953 64.1356 8.7157 64.1354 7.19234 62.6117C6.45416 61.8736 6.04763 60.892 6.04763 59.8481C6.04763 58.8042 6.45416 57.8227 7.19366 57.0832C7.26459 57.0119 7.34295 56.9403 7.43313 56.8635C7.44003 56.8578 7.44667 56.852 7.45331 56.8461L21.8831 44.0385C22.3875 43.5908 22.4334 42.819 21.9858 42.3147C21.5381 41.8102 20.7662 41.7641 20.262 42.2121L5.84177 55.0112C5.70391 55.1287 5.58052 55.2426 5.46551 55.3577C4.26608 56.5572 3.60547 58.1518 3.60547 59.8481C3.60547 61.5443 4.26595 63.1391 5.46537 64.3385C6.70359 65.5764 8.32961 66.1955 9.95603 66.1954C11.5818 66.1954 13.2082 65.5766 14.4455 64.3392C14.5628 64.2222 14.6763 64.0986 14.7929 63.9621L32.3816 44.1457L49.9704 63.9624C50.0869 64.099 50.2005 64.2226 50.317 64.3388C51.5549 65.5767 53.1811 66.1956 54.8072 66.1956C56.4335 66.1956 58.0598 65.5766 59.2979 64.3386C61.7735 61.8626 61.7735 57.8341 59.2985 55.3588C59.1817 55.2415 59.058 55.128 58.9216 55.0115L38.6822 37.0473L42.642 32.5858C45.8503 33.7226 49.4806 32.9307 51.9249 30.4869ZM57.3098 56.8463C57.3164 56.8521 57.3232 56.858 57.33 56.8637C57.4194 56.9398 57.4979 57.0116 57.5708 57.0844C59.0945 58.6083 59.0945 61.0878 57.5709 62.6114C56.0469 64.1352 53.5674 64.1352 52.043 62.6107C51.9709 62.5386 51.8988 62.46 51.8226 62.3706C51.8169 62.3638 51.8111 62.3571 51.8052 62.3504L34.0141 42.3061L37.0607 38.8736L57.3098 56.8463Z" fill="#DA592F"/>
<path d="M56.7613 2.16191C56.2842 1.68525 55.5112 1.68525 55.0343 2.16191L39.3178 17.8788C36.8733 20.3231 36.0817 23.953 37.2184 27.162L32.3821 31.4548L27.7339 27.3291C30.1377 22.5994 29.2602 16.8567 25.4466 13.043C21.659 9.25543 17.272 6.59001 13.0936 5.538C8.73161 4.44004 4.99188 5.17304 2.5622 7.60257C0.132533 10.0321 -0.600592 13.7724 0.497635 18.1341C1.54978 22.3122 4.21506 26.6993 8.00287 30.4867C11.8164 34.3005 17.559 35.178 22.289 32.7741C22.289 32.7741 26.8345 37.8951 26.8921 37.9602C27.1334 38.2321 27.4688 38.3706 27.8059 38.3706C28.0942 38.3706 28.3835 38.2691 28.616 38.0627L39.4889 28.412C39.8959 28.0507 40.0145 27.4636 39.7801 26.9725C38.6002 24.502 39.1084 21.5416 41.0446 19.6056L56.7613 3.88887C57.2382 3.41181 57.2382 2.63884 56.7613 2.16191ZM27.908 35.426L23.463 30.4182C23.0694 29.9747 22.4136 29.8778 21.9089 30.1895C17.9938 32.6036 12.9855 32.0162 9.72943 28.76C6.24921 25.2799 3.8117 21.2946 2.86568 17.5377C1.9858 14.0425 2.49128 11.1273 4.28917 9.32954C6.08678 7.53152 9.00202 7.0263 12.4971 7.90632C16.254 8.85221 20.2395 11.2896 23.7195 14.7698C26.9755 18.0257 27.5631 23.0341 25.1488 26.9491C24.8375 27.4539 24.9341 28.1095 25.3775 28.5033L30.5423 33.0874L27.908 35.426Z" fill="#DA592F"/>
</g>
<defs>
<clipPath id="clip0_143_1047">
<rect width="68" height="68" fill="white"/>
</clipPath>
</defs>
</svg>
