<svg width="208" height="60" viewBox="0 0 208 60" fill="none" xmlns="http://www.w3.org/2000/svg">
<path d="M79.247 46V17.6153H90.9162V21.1897H84.4333V29.4598H89.7248V33.0692H84.4333V46H79.247ZM99.5398 46.3154C98.068 46.3154 96.8532 46.0467 95.8953 45.5094C94.9375 44.9487 94.2133 44.1427 93.7227 43.0914C93.2554 42.0402 93.0218 40.7669 93.0218 39.2718V32.4735C93.0218 30.9783 93.2554 29.7051 93.7227 28.6538C94.2133 27.6025 94.9375 26.8082 95.8953 26.2709C96.8532 25.7102 98.068 25.4299 99.5398 25.4299C101.012 25.4299 102.226 25.7102 103.184 26.2709C104.165 26.8082 104.89 27.6025 105.357 28.6538C105.847 29.7051 106.093 30.9783 106.093 32.4735V39.2718C106.093 40.7669 105.847 42.0402 105.357 43.0914C104.89 44.1427 104.165 44.9487 103.184 45.5094C102.226 46.0467 101.012 46.3154 99.5398 46.3154ZM99.5748 43.0214C100.112 43.0214 100.509 42.8695 100.766 42.5658C101.023 42.2621 101.187 41.8533 101.257 41.3393C101.327 40.802 101.362 40.2179 101.362 39.5872V32.1581C101.362 31.5273 101.327 30.955 101.257 30.441C101.187 29.927 101.023 29.5182 100.766 29.2145C100.509 28.8874 100.112 28.7239 99.5748 28.7239C99.0375 28.7239 98.6403 28.8874 98.3834 29.2145C98.1264 29.5182 97.9512 29.927 97.8577 30.441C97.7876 30.955 97.7526 31.5273 97.7526 32.1581V39.5872C97.7526 40.2179 97.7876 40.802 97.8577 41.3393C97.9512 41.8533 98.1264 42.2621 98.3834 42.5658C98.6403 42.8695 99.0375 43.0214 99.5748 43.0214ZM109.46 46V25.7453H114.225V28.8641C114.926 27.6726 115.627 26.8199 116.328 26.306C117.029 25.7686 117.8 25.5 118.641 25.5C118.781 25.5 118.898 25.5116 118.991 25.535C119.108 25.535 119.237 25.5467 119.377 25.5701V30.5111C119.096 30.3943 118.781 30.3008 118.431 30.2307C118.104 30.1373 117.765 30.0906 117.414 30.0906C116.784 30.0906 116.211 30.2424 115.697 30.5461C115.183 30.8498 114.693 31.3521 114.225 32.053V46H109.46ZM121.743 46V17.6153H126.509V33.9102L131.731 25.7453H136.917L131.836 33.8752L136.812 46H131.801L128.121 36.0128L126.509 38.2555V46H121.743ZM139.766 46V29.0743H137.593V25.7453H139.766V24.4487C139.766 23.2339 139.871 22.1826 140.082 21.2948C140.315 20.3837 140.782 19.6829 141.483 19.1923C142.207 18.7017 143.294 18.4564 144.742 18.4564C145.186 18.4564 145.607 18.4797 146.004 18.5265C146.401 18.5498 146.845 18.5965 147.335 18.6666V22.2059C147.148 22.1592 146.927 22.1242 146.67 22.1008C146.436 22.0541 146.214 22.0307 146.004 22.0307C145.443 22.0307 145.058 22.2059 144.847 22.5564C144.637 22.9068 144.532 23.4208 144.532 24.0983V25.7453H147.335V29.0743H144.532V46H139.766ZM149.533 46V25.7453H154.299V28.8641C155 27.6726 155.7 26.8199 156.401 26.306C157.102 25.7686 157.873 25.5 158.714 25.5C158.854 25.5 158.971 25.5116 159.065 25.535C159.181 25.535 159.31 25.5467 159.45 25.5701V30.5111C159.17 30.3943 158.854 30.3008 158.504 30.2307C158.177 30.1373 157.838 30.0906 157.488 30.0906C156.857 30.0906 156.285 30.2424 155.771 30.5461C155.257 30.8498 154.766 31.3521 154.299 32.053V46H149.533ZM167.914 46.3154C166.396 46.3154 165.158 46.035 164.2 45.4744C163.242 44.8903 162.529 44.0493 162.062 42.9513C161.618 41.8299 161.396 40.4866 161.396 38.9214V32.8239C161.396 31.2119 161.618 29.857 162.062 28.7589C162.529 27.6609 163.242 26.8316 164.2 26.2709C165.181 25.7102 166.419 25.4299 167.914 25.4299C169.526 25.4299 170.776 25.7336 171.664 26.341C172.575 26.9484 173.217 27.8362 173.591 29.0042C173.988 30.149 174.187 31.5507 174.187 33.2094V36.0829H166.127V40.0778C166.127 40.7319 166.185 41.2692 166.302 41.6897C166.442 42.1103 166.653 42.414 166.933 42.6008C167.213 42.7877 167.552 42.8812 167.949 42.8812C168.37 42.8812 168.709 42.7877 168.966 42.6008C169.223 42.3906 169.409 42.0986 169.526 41.7248C169.643 41.3276 169.701 40.837 169.701 40.253V38.5709H174.152V39.9376C174.152 41.9934 173.638 43.5704 172.61 44.6684C171.582 45.7664 170.017 46.3154 167.914 46.3154ZM166.127 33.735H169.701V31.8077C169.701 31.1068 169.643 30.5461 169.526 30.1256C169.409 29.6817 169.223 29.3664 168.966 29.1795C168.709 28.9692 168.346 28.8641 167.879 28.8641C167.459 28.8641 167.12 28.9692 166.863 29.1795C166.606 29.3897 166.419 29.7401 166.302 30.2307C166.185 30.7213 166.127 31.4222 166.127 32.3333V33.735ZM182.923 46.3154C181.217 46.3154 179.816 45.8598 178.718 44.9487C177.62 44.0376 176.837 42.706 176.37 40.9538L179.909 39.5872C180.189 40.6852 180.563 41.5262 181.03 42.1103C181.498 42.6943 182.105 42.9863 182.853 42.9863C183.413 42.9863 183.834 42.8461 184.114 42.5658C184.395 42.2855 184.535 41.9 184.535 41.4094C184.535 40.8487 184.359 40.3464 184.009 39.9026C183.682 39.4353 183.11 38.863 182.292 38.1855L179.839 36.1179C178.951 35.347 178.227 34.5644 177.666 33.7701C177.129 32.9524 176.86 31.9362 176.86 30.7213C176.86 29.6233 177.106 28.6889 177.596 27.9179C178.11 27.1236 178.799 26.5162 179.664 26.0957C180.551 25.6518 181.533 25.4299 182.607 25.4299C184.243 25.4299 185.551 25.9205 186.532 26.9017C187.537 27.8595 188.179 29.1211 188.459 30.6863L185.341 32.0179C185.224 31.4572 185.049 30.9433 184.815 30.476C184.605 29.9854 184.324 29.5883 183.974 29.2846C183.624 28.9809 183.215 28.829 182.747 28.829C182.257 28.829 181.86 28.9809 181.556 29.2846C181.276 29.5883 181.136 29.9738 181.136 30.441C181.136 30.8382 181.299 31.247 181.626 31.6675C181.977 32.088 182.467 32.5669 183.098 33.1043L185.586 35.347C186.123 35.8142 186.637 36.3165 187.128 36.8538C187.618 37.3912 188.027 37.9986 188.354 38.6761C188.681 39.3302 188.845 40.0894 188.845 40.9538C188.845 42.1219 188.576 43.1031 188.039 43.8974C187.525 44.6917 186.812 45.2991 185.901 45.7197C185.014 46.1168 184.021 46.3154 182.923 46.3154ZM191.522 46V17.6153H196.288V27.6726C196.989 26.9718 197.748 26.4228 198.565 26.0256C199.407 25.6285 200.318 25.4299 201.299 25.4299C202.116 25.4299 202.771 25.6401 203.261 26.0607C203.752 26.4578 204.114 26.9951 204.348 27.6726C204.581 28.3501 204.698 29.086 204.698 29.8803V46H199.932V30.8265C199.932 30.2191 199.839 29.7518 199.652 29.4248C199.465 29.0977 199.103 28.9342 198.565 28.9342C198.238 28.9342 197.865 29.0276 197.444 29.2145C197.047 29.4014 196.661 29.6467 196.288 29.9504V46H191.522Z" fill="white"/>
<path d="M29.6316 30.034L20.5838 38.1615L14.8674 43.2946L12.0156 45.8611L11.6527 46.1852L11.4712 46.3408C11.4064 46.3926 11.3416 46.4574 11.2897 46.5093C11.0564 46.7556 10.836 47.0278 10.6934 47.3648C10.5509 47.7018 10.512 48.0907 10.5897 48.4407C10.6416 48.6999 10.7453 48.9462 10.862 49.1795C10.9268 49.3092 11.0953 49.348 11.2119 49.2703C11.3156 49.2055 11.3545 49.0629 11.2897 48.9462C11.186 48.7518 11.0953 48.5573 11.0564 48.3499C11.0045 48.0777 11.0175 47.7926 11.1212 47.5463C11.2249 47.287 11.4064 47.0537 11.6138 46.8333C11.6656 46.7815 11.7175 46.7296 11.7823 46.6778L11.9508 46.5093L12.3008 46.1852L15.1136 43.5668L20.7393 38.3429L29.6575 30.0599L29.6316 30.034ZM29.6316 30.034L20.5838 38.1615L14.8674 43.2946L12.0156 45.8611L11.6527 46.1852L11.4712 46.3408C11.4064 46.3926 11.3416 46.4574 11.2897 46.5093C11.0564 46.7556 10.836 47.0278 10.6934 47.3648C10.5509 47.7018 10.512 48.0907 10.5897 48.4407C10.6416 48.6999 10.7453 48.9462 10.862 49.1795C10.9268 49.3092 11.0953 49.348 11.2119 49.2703C11.3156 49.2055 11.3545 49.0629 11.2897 48.9462C11.186 48.7518 11.0953 48.5573 11.0564 48.3499C11.0045 48.0777 11.0175 47.7926 11.1212 47.5463C11.2249 47.287 11.4064 47.0537 11.6138 46.8333C11.6656 46.7815 11.7175 46.7296 11.7823 46.6778L11.9508 46.5093L12.3008 46.1852L15.1136 43.5668L20.7393 38.3429L29.6575 30.0599L29.6316 30.034ZM49.9956 49.2703C49.9308 49.1666 49.7882 49.1277 49.6715 49.1925C49.4771 49.2962 49.2827 49.3869 49.0753 49.4258C48.8031 49.4777 48.5179 49.4647 48.2716 49.361C48.0123 49.2573 47.779 49.0758 47.5587 48.8684C47.5068 48.8166 47.455 48.7647 47.4031 48.6999L47.2346 48.5184L46.9105 48.1685L44.2921 45.3556L39.0682 39.7299L30.8241 30.8506L30.7852 30.8895L38.8868 39.8984L44.0329 45.6149L46.5994 48.4666L46.9235 48.8296L47.079 49.011C47.1309 49.0758 47.1957 49.1277 47.2475 49.1925C47.4938 49.4258 47.7661 49.6591 48.1031 49.7888C48.4401 49.9314 48.829 49.9702 49.179 49.8925C49.4512 49.8406 49.6845 49.7369 49.9178 49.6203C50.0345 49.5425 50.0734 49.3869 49.9956 49.2703ZM29.6316 30.034L20.5838 38.1615L14.8674 43.2946L12.0156 45.8611L11.6527 46.1852L11.4712 46.3408C11.4064 46.3926 11.3416 46.4574 11.2897 46.5093C11.0564 46.7556 10.836 47.0278 10.6934 47.3648C10.5509 47.7018 10.512 48.0907 10.5897 48.4407C10.6416 48.6999 10.7453 48.9462 10.862 49.1795C10.9268 49.3092 11.0953 49.348 11.2119 49.2703C11.3156 49.2055 11.3545 49.0629 11.2897 48.9462C11.186 48.7518 11.0953 48.5573 11.0564 48.3499C11.0045 48.0777 11.0175 47.7926 11.1212 47.5463C11.2249 47.287 11.4064 47.0537 11.6138 46.8333C11.6656 46.7815 11.7175 46.7296 11.7823 46.6778L11.9508 46.5093L12.3008 46.1852L15.1136 43.5668L20.7393 38.3429L29.6575 30.0599L29.6316 30.034ZM49.9956 49.2703C49.9308 49.1666 49.7882 49.1277 49.6715 49.1925C49.4771 49.2962 49.2827 49.3869 49.0753 49.4258C48.8031 49.4777 48.5179 49.4647 48.2716 49.361C48.0123 49.2573 47.779 49.0758 47.5587 48.8684C47.5068 48.8166 47.455 48.7647 47.4031 48.6999L47.2346 48.5184L46.9105 48.1685L44.2921 45.3556L39.0682 39.7299L30.8241 30.8506L30.7852 30.8895L38.8868 39.8984L44.0329 45.6149L46.5994 48.4666L46.9235 48.8296L47.079 49.011C47.1309 49.0758 47.1957 49.1277 47.2475 49.1925C47.4938 49.4258 47.7661 49.6591 48.1031 49.7888C48.4401 49.9314 48.829 49.9702 49.179 49.8925C49.4512 49.8406 49.6845 49.7369 49.9178 49.6203C50.0345 49.5425 50.0734 49.3869 49.9956 49.2703ZM29.6316 30.034L20.5838 38.1615L14.8674 43.2946L12.0156 45.8611L11.6527 46.1852L11.4712 46.3408C11.4064 46.3926 11.3416 46.4574 11.2897 46.5093C11.0564 46.7556 10.836 47.0278 10.6934 47.3648C10.5509 47.7018 10.512 48.0907 10.5897 48.4407C10.6416 48.6999 10.7453 48.9462 10.862 49.1795C10.9268 49.3092 11.0953 49.348 11.2119 49.2703C11.3156 49.2055 11.3545 49.0629 11.2897 48.9462C11.186 48.7518 11.0953 48.5573 11.0564 48.3499C11.0045 48.0777 11.0175 47.7926 11.1212 47.5463C11.2249 47.287 11.4064 47.0537 11.6138 46.8333C11.6656 46.7815 11.7175 46.7296 11.7823 46.6778L11.9508 46.5093L12.3008 46.1852L15.1136 43.5668L20.7393 38.3429L29.6575 30.0599L29.6316 30.034ZM49.9956 49.2703C49.9308 49.1666 49.7882 49.1277 49.6715 49.1925C49.4771 49.2962 49.2827 49.3869 49.0753 49.4258C48.8031 49.4777 48.5179 49.4647 48.2716 49.361C48.0123 49.2573 47.779 49.0758 47.5587 48.8684C47.5068 48.8166 47.455 48.7647 47.4031 48.6999L47.2346 48.5184L46.9105 48.1685L44.2921 45.3556L39.0682 39.7299L30.8241 30.8506L30.7852 30.8895L38.8868 39.8984L44.0329 45.6149L46.5994 48.4666L46.9235 48.8296L47.079 49.011C47.1309 49.0758 47.1957 49.1277 47.2475 49.1925C47.4938 49.4258 47.7661 49.6591 48.1031 49.7888C48.4401 49.9314 48.829 49.9702 49.179 49.8925C49.4512 49.8406 49.6845 49.7369 49.9178 49.6203C50.0345 49.5425 50.0734 49.3869 49.9956 49.2703ZM49.9956 49.2703C49.9308 49.1666 49.7882 49.1277 49.6715 49.1925C49.4771 49.2962 49.2827 49.3869 49.0753 49.4258C48.8031 49.4777 48.5179 49.4647 48.2716 49.361C48.0123 49.2573 47.779 49.0758 47.5587 48.8684C47.5068 48.8166 47.455 48.7647 47.4031 48.6999L47.2346 48.5184L46.9105 48.1685L44.2921 45.3556L39.0682 39.7299L30.8241 30.8506L30.7852 30.8895L38.8868 39.8984L44.0329 45.6149L46.5994 48.4666L46.9235 48.8296L47.079 49.011C47.1309 49.0758 47.1957 49.1277 47.2475 49.1925C47.4938 49.4258 47.7661 49.6591 48.1031 49.7888C48.4401 49.9314 48.829 49.9702 49.179 49.8925C49.4512 49.8406 49.6845 49.7369 49.9178 49.6203C50.0345 49.5425 50.0734 49.3869 49.9956 49.2703ZM29.6316 30.034L20.5838 38.1615L14.8674 43.2946L12.0156 45.8611L11.6527 46.1852L11.4712 46.3408C11.4064 46.3926 11.3416 46.4574 11.2897 46.5093C11.0564 46.7556 10.836 47.0278 10.6934 47.3648C10.5509 47.7018 10.512 48.0907 10.5897 48.4407C10.6416 48.6999 10.7453 48.9462 10.862 49.1795C10.9268 49.3092 11.0953 49.348 11.2119 49.2703C11.3156 49.2055 11.3545 49.0629 11.2897 48.9462C11.186 48.7518 11.0953 48.5573 11.0564 48.3499C11.0045 48.0777 11.0175 47.7926 11.1212 47.5463C11.2249 47.287 11.4064 47.0537 11.6138 46.8333C11.6656 46.7815 11.7175 46.7296 11.7823 46.6778L11.9508 46.5093L12.3008 46.1852L15.1136 43.5668L20.7393 38.3429L29.6575 30.0599L29.6316 30.034ZM29.6316 30.034L20.5838 38.1615L14.8674 43.2946L12.0156 45.8611L11.6527 46.1852L11.4712 46.3408C11.4064 46.3926 11.3416 46.4574 11.2897 46.5093C11.0564 46.7556 10.836 47.0278 10.6934 47.3648C10.5509 47.7018 10.512 48.0907 10.5897 48.4407C10.6416 48.6999 10.7453 48.9462 10.862 49.1795C10.9268 49.3092 11.0953 49.348 11.2119 49.2703C11.3156 49.2055 11.3545 49.0629 11.2897 48.9462C11.186 48.7518 11.0953 48.5573 11.0564 48.3499C11.0045 48.0777 11.0175 47.7926 11.1212 47.5463C11.2249 47.287 11.4064 47.0537 11.6138 46.8333C11.6656 46.7815 11.7175 46.7296 11.7823 46.6778L11.9508 46.5093L12.3008 46.1852L15.1136 43.5668L20.7393 38.3429L29.6575 30.0599L29.6316 30.034ZM49.9956 49.2703C49.9308 49.1666 49.7882 49.1277 49.6715 49.1925C49.4771 49.2962 49.2827 49.3869 49.0753 49.4258C48.8031 49.4777 48.5179 49.4647 48.2716 49.361C48.0123 49.2573 47.779 49.0758 47.5587 48.8684C47.5068 48.8166 47.455 48.7647 47.4031 48.6999L47.2346 48.5184L46.9105 48.1685L44.2921 45.3556L39.0682 39.7299L30.8241 30.8506L30.7852 30.8895L38.8868 39.8984L44.0329 45.6149L46.5994 48.4666L46.9235 48.8296L47.079 49.011C47.1309 49.0758 47.1957 49.1277 47.2475 49.1925C47.4938 49.4258 47.7661 49.6591 48.1031 49.7888C48.4401 49.9314 48.829 49.9702 49.179 49.8925C49.4512 49.8406 49.6845 49.7369 49.9178 49.6203C50.0345 49.5425 50.0734 49.3869 49.9956 49.2703ZM49.9956 49.2703C49.9308 49.1666 49.7882 49.1277 49.6715 49.1925C49.4771 49.2962 49.2827 49.3869 49.0753 49.4258C48.8031 49.4777 48.5179 49.4647 48.2716 49.361C48.0123 49.2573 47.779 49.0758 47.5587 48.8684C47.5068 48.8166 47.455 48.7647 47.4031 48.6999L47.2346 48.5184L46.9105 48.1685L44.2921 45.3556L39.0682 39.7299L30.8241 30.8506L30.7852 30.8895L38.8868 39.8984L44.0329 45.6149L46.5994 48.4666L46.9235 48.8296L47.079 49.011C47.1309 49.0758 47.1957 49.1277 47.2475 49.1925C47.4938 49.4258 47.7661 49.6591 48.1031 49.7888C48.4401 49.9314 48.829 49.9702 49.179 49.8925C49.4512 49.8406 49.6845 49.7369 49.9178 49.6203C50.0345 49.5425 50.0734 49.3869 49.9956 49.2703ZM29.6316 30.034L20.5838 38.1615L14.8674 43.2946L12.0156 45.8611L11.6527 46.1852L11.4712 46.3408C11.4064 46.3926 11.3416 46.4574 11.2897 46.5093C11.0564 46.7556 10.836 47.0278 10.6934 47.3648C10.5509 47.7018 10.512 48.0907 10.5897 48.4407C10.6416 48.6999 10.7453 48.9462 10.862 49.1795C10.9268 49.3092 11.0953 49.348 11.2119 49.2703C11.3156 49.2055 11.3545 49.0629 11.2897 48.9462C11.186 48.7518 11.0953 48.5573 11.0564 48.3499C11.0045 48.0777 11.0175 47.7926 11.1212 47.5463C11.2249 47.287 11.4064 47.0537 11.6138 46.8333C11.6656 46.7815 11.7175 46.7296 11.7823 46.6778L11.9508 46.5093L12.3008 46.1852L15.1136 43.5668L20.7393 38.3429L29.6575 30.0599L29.6316 30.034ZM29.6316 30.034L20.5838 38.1615L14.8674 43.2946L12.0156 45.8611L11.6527 46.1852L11.4712 46.3408C11.4064 46.3926 11.3416 46.4574 11.2897 46.5093C11.0564 46.7556 10.836 47.0278 10.6934 47.3648C10.5509 47.7018 10.512 48.0907 10.5897 48.4407C10.6416 48.6999 10.7453 48.9462 10.862 49.1795C10.9268 49.3092 11.0953 49.348 11.2119 49.2703C11.3156 49.2055 11.3545 49.0629 11.2897 48.9462C11.186 48.7518 11.0953 48.5573 11.0564 48.3499C11.0045 48.0777 11.0175 47.7926 11.1212 47.5463C11.2249 47.287 11.4064 47.0537 11.6138 46.8333C11.6656 46.7815 11.7175 46.7296 11.7823 46.6778L11.9508 46.5093L12.3008 46.1852L15.1136 43.5668L20.7393 38.3429L29.6575 30.0599L29.6316 30.034ZM49.9956 49.2703C49.9308 49.1666 49.7882 49.1277 49.6715 49.1925C49.4771 49.2962 49.2827 49.3869 49.0753 49.4258C48.8031 49.4777 48.5179 49.4647 48.2716 49.361C48.0123 49.2573 47.779 49.0758 47.5587 48.8684C47.5068 48.8166 47.455 48.7647 47.4031 48.6999L47.2346 48.5184L46.9105 48.1685L44.2921 45.3556L39.0682 39.7299L30.8241 30.8506L30.7852 30.8895L38.8868 39.8984L44.0329 45.6149L46.5994 48.4666L46.9235 48.8296L47.079 49.011C47.1309 49.0758 47.1957 49.1277 47.2475 49.1925C47.4938 49.4258 47.7661 49.6591 48.1031 49.7888C48.4401 49.9314 48.829 49.9702 49.179 49.8925C49.4512 49.8406 49.6845 49.7369 49.9178 49.6203C50.0345 49.5425 50.0734 49.3869 49.9956 49.2703ZM49.9956 49.2703C49.9308 49.1666 49.7882 49.1277 49.6715 49.1925C49.4771 49.2962 49.2827 49.3869 49.0753 49.4258C48.8031 49.4777 48.5179 49.4647 48.2716 49.361C48.0123 49.2573 47.779 49.0758 47.5587 48.8684C47.5068 48.8166 47.455 48.7647 47.4031 48.6999L47.2346 48.5184L46.9105 48.1685L44.2921 45.3556L39.0682 39.7299L30.8241 30.8506L30.7852 30.8895L38.8868 39.8984L44.0329 45.6149L46.5994 48.4666L46.9235 48.8296L47.079 49.011C47.1309 49.0758 47.1957 49.1277 47.2475 49.1925C47.4938 49.4258 47.7661 49.6591 48.1031 49.7888C48.4401 49.9314 48.829 49.9702 49.179 49.8925C49.4512 49.8406 49.6845 49.7369 49.9178 49.6203C50.0345 49.5425 50.0734 49.3869 49.9956 49.2703ZM29.6316 30.034L20.5838 38.1615L14.8674 43.2946L12.0156 45.8611L11.6527 46.1852L11.4712 46.3408C11.4064 46.3926 11.3416 46.4574 11.2897 46.5093C11.0564 46.7556 10.836 47.0278 10.6934 47.3648C10.5509 47.7018 10.512 48.0907 10.5897 48.4407C10.6416 48.6999 10.7453 48.9462 10.862 49.1795C10.9268 49.3092 11.0953 49.348 11.2119 49.2703C11.3156 49.2055 11.3545 49.0629 11.2897 48.9462C11.186 48.7518 11.0953 48.5573 11.0564 48.3499C11.0045 48.0777 11.0175 47.7926 11.1212 47.5463C11.2249 47.287 11.4064 47.0537 11.6138 46.8333C11.6656 46.7815 11.7175 46.7296 11.7823 46.6778L11.9508 46.5093L12.3008 46.1852L15.1136 43.5668L20.7393 38.3429L29.6575 30.0599L29.6316 30.034ZM29.6316 30.034L20.5838 38.1615L14.8674 43.2946L12.0156 45.8611L11.6527 46.1852L11.4712 46.3408C11.4064 46.3926 11.3416 46.4574 11.2897 46.5093C11.0564 46.7556 10.836 47.0278 10.6934 47.3648C10.5509 47.7018 10.512 48.0907 10.5897 48.4407C10.6416 48.6999 10.7453 48.9462 10.862 49.1795C10.9268 49.3092 11.0953 49.348 11.2119 49.2703C11.3156 49.2055 11.3545 49.0629 11.2897 48.9462C11.186 48.7518 11.0953 48.5573 11.0564 48.3499C11.0045 48.0777 11.0175 47.7926 11.1212 47.5463C11.2249 47.287 11.4064 47.0537 11.6138 46.8333C11.6656 46.7815 11.7175 46.7296 11.7823 46.6778L11.9508 46.5093L12.3008 46.1852L15.1136 43.5668L20.7393 38.3429L29.6575 30.0599L29.6316 30.034ZM49.9956 49.2703C49.9308 49.1666 49.7882 49.1277 49.6715 49.1925C49.4771 49.2962 49.2827 49.3869 49.0753 49.4258C48.8031 49.4777 48.5179 49.4647 48.2716 49.361C48.0123 49.2573 47.779 49.0758 47.5587 48.8684C47.5068 48.8166 47.455 48.7647 47.4031 48.6999L47.2346 48.5184L46.9105 48.1685L44.2921 45.3556L39.0682 39.7299L30.8241 30.8506L30.7852 30.8895L38.8868 39.8984L44.0329 45.6149L46.5994 48.4666L46.9235 48.8296L47.079 49.011C47.1309 49.0758 47.1957 49.1277 47.2475 49.1925C47.4938 49.4258 47.7661 49.6591 48.1031 49.7888C48.4401 49.9314 48.829 49.9702 49.179 49.8925C49.4512 49.8406 49.6845 49.7369 49.9178 49.6203C50.0345 49.5425 50.0734 49.3869 49.9956 49.2703ZM49.9956 49.2703C49.9308 49.1666 49.7882 49.1277 49.6715 49.1925C49.4771 49.2962 49.2827 49.3869 49.0753 49.4258C48.8031 49.4777 48.5179 49.4647 48.2716 49.361C48.0123 49.2573 47.779 49.0758 47.5587 48.8684C47.5068 48.8166 47.455 48.7647 47.4031 48.6999L47.2346 48.5184L46.9105 48.1685L44.2921 45.3556L39.0682 39.7299L30.8241 30.8506L30.7852 30.8895L38.8868 39.8984L44.0329 45.6149L46.5994 48.4666L46.9235 48.8296L47.079 49.011C47.1309 49.0758 47.1957 49.1277 47.2475 49.1925C47.4938 49.4258 47.7661 49.6591 48.1031 49.7888C48.4401 49.9314 48.829 49.9702 49.179 49.8925C49.4512 49.8406 49.6845 49.7369 49.9178 49.6203C50.0345 49.5425 50.0734 49.3869 49.9956 49.2703ZM20.5838 38.1615L14.8674 43.2946L12.0156 45.8611L11.6527 46.1852L11.4712 46.3408C11.4064 46.3926 11.3416 46.4574 11.2897 46.5093C11.0564 46.7556 10.836 47.0278 10.6934 47.3648C10.5509 47.7018 10.512 48.0907 10.5897 48.4407C10.6416 48.6999 10.7453 48.9462 10.862 49.1795C10.9268 49.3092 11.0953 49.348 11.2119 49.2703C11.3156 49.2055 11.3545 49.0629 11.2897 48.9462C11.186 48.7518 11.0953 48.5573 11.0564 48.3499C11.0045 48.0777 11.0175 47.7926 11.1212 47.5463C11.2249 47.287 11.4064 47.0537 11.6138 46.8333C11.6656 46.7815 11.7175 46.7296 11.7823 46.6778L11.9508 46.5093L12.3008 46.1852L15.1136 43.5668L20.7393 38.3429L29.6575 30.0599L29.6186 30.021L20.5838 38.1615ZM30.3056 0C13.9729 0 0.738281 13.2347 0.738281 29.5673C0.738281 45.9 13.9729 59.1347 30.3056 59.1347C46.6383 59.1347 59.873 45.9 59.873 29.5673C59.873 13.2347 46.6383 0 30.3056 0ZM30.3056 5.74236C34.9073 5.74236 39.2108 7.05157 42.8662 9.32C42.3996 9.46259 41.9329 9.64406 41.4533 9.85146C38.1609 7.98487 34.3499 6.90898 30.3056 6.90898C25.8854 6.90898 21.7634 8.17931 18.2765 10.3829L17.3432 9.59221C21.0764 7.15527 25.5225 5.74236 30.3056 5.74236ZM6.48065 29.5673C6.48065 24.7842 7.89355 20.3251 10.3305 16.5919L11.1212 17.5252C8.91759 21.0121 7.64727 25.1472 7.64727 29.5544C7.64727 34.8042 9.44904 39.6521 12.4563 43.489L11.5878 44.2797C8.38612 40.2484 6.48065 35.1282 6.48065 29.5673ZM30.3056 53.3923C25.0429 53.3923 20.169 51.6813 16.2284 48.7777L17.0191 47.9092C20.7523 50.6184 25.341 52.2257 30.3056 52.2257C35.4128 52.2257 40.1441 50.5276 43.9421 47.65L44.7328 48.5184C40.7274 51.5776 35.7239 53.3923 30.3056 53.3923ZM50.2678 49.5295C49.4771 50.3202 48.1938 50.3202 47.4031 49.5295C47.3772 49.5036 47.3642 49.4906 47.3383 49.4647L30.5908 31.0969L13.8433 49.4647C13.0656 50.3202 11.7304 50.3462 10.9138 49.5295C10.0972 48.7129 10.1231 47.3778 10.9786 46.613L29.4112 29.8136L26.4947 26.6119C26.1188 26.1971 25.5614 26.0027 25.004 26.0805L22.243 26.4693C21.2319 26.6119 20.2079 26.223 19.5468 25.4453L9.76014 13.9476C9.70829 13.8828 9.79903 13.792 9.86384 13.8439L18.8987 21.6603C19.0283 21.7769 19.2098 21.5954 19.1061 21.4658L11.4193 12.2236C11.3675 12.1588 11.4582 12.068 11.523 12.1199L20.3116 19.7677C20.4412 19.8844 20.6356 19.7029 20.519 19.5603L12.8711 10.7718C12.8193 10.707 12.8971 10.6162 12.9748 10.6681L22.2171 18.3548C22.3596 18.4715 22.5282 18.2771 22.4245 18.1474L14.6081 9.1126C14.5563 9.04779 14.647 8.95705 14.7118 9.0089L26.2095 18.7956C26.9872 19.4566 27.3761 20.4677 27.2335 21.4917L26.8447 24.2527C26.7669 24.8101 26.9613 25.3675 27.3761 25.7434L30.6297 28.7118L33.3648 26.2101C33.8833 25.7434 34.0518 25.0046 33.8055 24.3435C32.7685 21.6473 34.1814 17.4863 37.4998 14.1809C41.4663 10.2144 46.6513 8.95705 49.0753 11.381C51.4992 13.805 50.2548 18.99 46.2754 22.9565C42.957 26.2749 38.809 27.6878 36.1128 26.6508C35.4647 26.4045 34.7129 26.573 34.2462 27.0915L31.7963 29.7747L50.2289 46.5741C51.0585 47.3778 51.0844 48.7129 50.2678 49.5295ZM49.2567 43.9946L48.3882 43.2038C51.253 39.4058 52.964 34.6875 52.964 29.5673C52.964 25.8601 52.0696 22.3602 50.4882 19.2622C50.7085 18.7826 50.903 18.3159 51.0585 17.8493C53.0158 21.3103 54.1436 25.3157 54.1436 29.5673C54.1306 34.9856 52.3159 39.9892 49.2567 43.9946ZM49.6715 49.1925C49.4771 49.2962 49.2827 49.3869 49.0753 49.4258C48.8031 49.4777 48.5179 49.4647 48.2716 49.361C48.0123 49.2573 47.779 49.0758 47.5587 48.8684C47.5068 48.8166 47.455 48.7647 47.4031 48.6999L47.2346 48.5184L46.9105 48.1685L44.2921 45.3556L39.0682 39.7299L30.8241 30.8506L30.7852 30.8895L38.8868 39.8984L44.0329 45.6149L46.5994 48.4666L46.9235 48.8296L47.079 49.011C47.1309 49.0758 47.1957 49.1277 47.2475 49.1925C47.4938 49.4258 47.7661 49.6591 48.1031 49.7888C48.4401 49.9314 48.829 49.9702 49.179 49.8925C49.4512 49.8406 49.6845 49.7369 49.9178 49.6203C50.0475 49.5554 50.0863 49.3869 50.0086 49.2703C49.9308 49.1666 49.7882 49.1277 49.6715 49.1925ZM20.5838 38.1615L14.8674 43.2946L12.0156 45.8611L11.6527 46.1852L11.4712 46.3408C11.4064 46.3926 11.3416 46.4574 11.2897 46.5093C11.0564 46.7556 10.836 47.0278 10.6934 47.3648C10.5509 47.7018 10.512 48.0907 10.5897 48.4407C10.6416 48.6999 10.7453 48.9462 10.862 49.1795C10.9268 49.3092 11.0953 49.348 11.2119 49.2703C11.3156 49.2055 11.3545 49.0629 11.2897 48.9462C11.186 48.7518 11.0953 48.5573 11.0564 48.3499C11.0045 48.0777 11.0175 47.7926 11.1212 47.5463C11.2249 47.287 11.4064 47.0537 11.6138 46.8333C11.6656 46.7815 11.7175 46.7296 11.7823 46.6778L11.9508 46.5093L12.3008 46.1852L15.1136 43.5668L20.7393 38.3429L29.6575 30.0599L29.6186 30.021L20.5838 38.1615ZM29.6316 30.034L20.5838 38.1615L14.8674 43.2946L12.0156 45.8611L11.6527 46.1852L11.4712 46.3408C11.4064 46.3926 11.3416 46.4574 11.2897 46.5093C11.0564 46.7556 10.836 47.0278 10.6934 47.3648C10.5509 47.7018 10.512 48.0907 10.5897 48.4407C10.6416 48.6999 10.7453 48.9462 10.862 49.1795C10.9268 49.3092 11.0953 49.348 11.2119 49.2703C11.3156 49.2055 11.3545 49.0629 11.2897 48.9462C11.186 48.7518 11.0953 48.5573 11.0564 48.3499C11.0045 48.0777 11.0175 47.7926 11.1212 47.5463C11.2249 47.287 11.4064 47.0537 11.6138 46.8333C11.6656 46.7815 11.7175 46.7296 11.7823 46.6778L11.9508 46.5093L12.3008 46.1852L15.1136 43.5668L20.7393 38.3429L29.6575 30.0599L29.6316 30.034ZM49.9956 49.2703C49.9308 49.1666 49.7882 49.1277 49.6715 49.1925C49.4771 49.2962 49.2827 49.3869 49.0753 49.4258C48.8031 49.4777 48.5179 49.4647 48.2716 49.361C48.0123 49.2573 47.779 49.0758 47.5587 48.8684C47.5068 48.8166 47.455 48.7647 47.4031 48.6999L47.2346 48.5184L46.9105 48.1685L44.2921 45.3556L39.0682 39.7299L30.8241 30.8506L30.7852 30.8895L38.8868 39.8984L44.0329 45.6149L46.5994 48.4666L46.9235 48.8296L47.079 49.011C47.1309 49.0758 47.1957 49.1277 47.2475 49.1925C47.4938 49.4258 47.7661 49.6591 48.1031 49.7888C48.4401 49.9314 48.829 49.9702 49.179 49.8925C49.4512 49.8406 49.6845 49.7369 49.9178 49.6203C50.0345 49.5425 50.0734 49.3869 49.9956 49.2703ZM49.9956 49.2703C49.9308 49.1666 49.7882 49.1277 49.6715 49.1925C49.4771 49.2962 49.2827 49.3869 49.0753 49.4258C48.8031 49.4777 48.5179 49.4647 48.2716 49.361C48.0123 49.2573 47.779 49.0758 47.5587 48.8684C47.5068 48.8166 47.455 48.7647 47.4031 48.6999L47.2346 48.5184L46.9105 48.1685L44.2921 45.3556L39.0682 39.7299L30.8241 30.8506L30.7852 30.8895L38.8868 39.8984L44.0329 45.6149L46.5994 48.4666L46.9235 48.8296L47.079 49.011C47.1309 49.0758 47.1957 49.1277 47.2475 49.1925C47.4938 49.4258 47.7661 49.6591 48.1031 49.7888C48.4401 49.9314 48.829 49.9702 49.179 49.8925C49.4512 49.8406 49.6845 49.7369 49.9178 49.6203C50.0345 49.5425 50.0734 49.3869 49.9956 49.2703ZM29.6316 30.034L20.5838 38.1615L14.8674 43.2946L12.0156 45.8611L11.6527 46.1852L11.4712 46.3408C11.4064 46.3926 11.3416 46.4574 11.2897 46.5093C11.0564 46.7556 10.836 47.0278 10.6934 47.3648C10.5509 47.7018 10.512 48.0907 10.5897 48.4407C10.6416 48.6999 10.7453 48.9462 10.862 49.1795C10.9268 49.3092 11.0953 49.348 11.2119 49.2703C11.3156 49.2055 11.3545 49.0629 11.2897 48.9462C11.186 48.7518 11.0953 48.5573 11.0564 48.3499C11.0045 48.0777 11.0175 47.7926 11.1212 47.5463C11.2249 47.287 11.4064 47.0537 11.6138 46.8333C11.6656 46.7815 11.7175 46.7296 11.7823 46.6778L11.9508 46.5093L12.3008 46.1852L15.1136 43.5668L20.7393 38.3429L29.6575 30.0599L29.6316 30.034ZM29.6316 30.034L20.5838 38.1615L14.8674 43.2946L12.0156 45.8611L11.6527 46.1852L11.4712 46.3408C11.4064 46.3926 11.3416 46.4574 11.2897 46.5093C11.0564 46.7556 10.836 47.0278 10.6934 47.3648C10.5509 47.7018 10.512 48.0907 10.5897 48.4407C10.6416 48.6999 10.7453 48.9462 10.862 49.1795C10.9268 49.3092 11.0953 49.348 11.2119 49.2703C11.3156 49.2055 11.3545 49.0629 11.2897 48.9462C11.186 48.7518 11.0953 48.5573 11.0564 48.3499C11.0045 48.0777 11.0175 47.7926 11.1212 47.5463C11.2249 47.287 11.4064 47.0537 11.6138 46.8333C11.6656 46.7815 11.7175 46.7296 11.7823 46.6778L11.9508 46.5093L12.3008 46.1852L15.1136 43.5668L20.7393 38.3429L29.6575 30.0599L29.6316 30.034ZM49.9956 49.2703C49.9308 49.1666 49.7882 49.1277 49.6715 49.1925C49.4771 49.2962 49.2827 49.3869 49.0753 49.4258C48.8031 49.4777 48.5179 49.4647 48.2716 49.361C48.0123 49.2573 47.779 49.0758 47.5587 48.8684C47.5068 48.8166 47.455 48.7647 47.4031 48.6999L47.2346 48.5184L46.9105 48.1685L44.2921 45.3556L39.0682 39.7299L30.8241 30.8506L30.7852 30.8895L38.8868 39.8984L44.0329 45.6149L46.5994 48.4666L46.9235 48.8296L47.079 49.011C47.1309 49.0758 47.1957 49.1277 47.2475 49.1925C47.4938 49.4258 47.7661 49.6591 48.1031 49.7888C48.4401 49.9314 48.829 49.9702 49.179 49.8925C49.4512 49.8406 49.6845 49.7369 49.9178 49.6203C50.0345 49.5425 50.0734 49.3869 49.9956 49.2703ZM49.9956 49.2703C49.9308 49.1666 49.7882 49.1277 49.6715 49.1925C49.4771 49.2962 49.2827 49.3869 49.0753 49.4258C48.8031 49.4777 48.5179 49.4647 48.2716 49.361C48.0123 49.2573 47.779 49.0758 47.5587 48.8684C47.5068 48.8166 47.455 48.7647 47.4031 48.6999L47.2346 48.5184L46.9105 48.1685L44.2921 45.3556L39.0682 39.7299L30.8241 30.8506L30.7852 30.8895L38.8868 39.8984L44.0329 45.6149L46.5994 48.4666L46.9235 48.8296L47.079 49.011C47.1309 49.0758 47.1957 49.1277 47.2475 49.1925C47.4938 49.4258 47.7661 49.6591 48.1031 49.7888C48.4401 49.9314 48.829 49.9702 49.179 49.8925C49.4512 49.8406 49.6845 49.7369 49.9178 49.6203C50.0345 49.5425 50.0734 49.3869 49.9956 49.2703ZM29.6316 30.034L20.5838 38.1615L14.8674 43.2946L12.0156 45.8611L11.6527 46.1852L11.4712 46.3408C11.4064 46.3926 11.3416 46.4574 11.2897 46.5093C11.0564 46.7556 10.836 47.0278 10.6934 47.3648C10.5509 47.7018 10.512 48.0907 10.5897 48.4407C10.6416 48.6999 10.7453 48.9462 10.862 49.1795C10.9268 49.3092 11.0953 49.348 11.2119 49.2703C11.3156 49.2055 11.3545 49.0629 11.2897 48.9462C11.186 48.7518 11.0953 48.5573 11.0564 48.3499C11.0045 48.0777 11.0175 47.7926 11.1212 47.5463C11.2249 47.287 11.4064 47.0537 11.6138 46.8333C11.6656 46.7815 11.7175 46.7296 11.7823 46.6778L11.9508 46.5093L12.3008 46.1852L15.1136 43.5668L20.7393 38.3429L29.6575 30.0599L29.6316 30.034ZM29.6316 30.034L20.5838 38.1615L14.8674 43.2946L12.0156 45.8611L11.6527 46.1852L11.4712 46.3408C11.4064 46.3926 11.3416 46.4574 11.2897 46.5093C11.0564 46.7556 10.836 47.0278 10.6934 47.3648C10.5509 47.7018 10.512 48.0907 10.5897 48.4407C10.6416 48.6999 10.7453 48.9462 10.862 49.1795C10.9268 49.3092 11.0953 49.348 11.2119 49.2703C11.3156 49.2055 11.3545 49.0629 11.2897 48.9462C11.186 48.7518 11.0953 48.5573 11.0564 48.3499C11.0045 48.0777 11.0175 47.7926 11.1212 47.5463C11.2249 47.287 11.4064 47.0537 11.6138 46.8333C11.6656 46.7815 11.7175 46.7296 11.7823 46.6778L11.9508 46.5093L12.3008 46.1852L15.1136 43.5668L20.7393 38.3429L29.6575 30.0599L29.6316 30.034ZM49.9956 49.2703C49.9308 49.1666 49.7882 49.1277 49.6715 49.1925C49.4771 49.2962 49.2827 49.3869 49.0753 49.4258C48.8031 49.4777 48.5179 49.4647 48.2716 49.361C48.0123 49.2573 47.779 49.0758 47.5587 48.8684C47.5068 48.8166 47.455 48.7647 47.4031 48.6999L47.2346 48.5184L46.9105 48.1685L44.2921 45.3556L39.0682 39.7299L30.8241 30.8506L30.7852 30.8895L38.8868 39.8984L44.0329 45.6149L46.5994 48.4666L46.9235 48.8296L47.079 49.011C47.1309 49.0758 47.1957 49.1277 47.2475 49.1925C47.4938 49.4258 47.7661 49.6591 48.1031 49.7888C48.4401 49.9314 48.829 49.9702 49.179 49.8925C49.4512 49.8406 49.6845 49.7369 49.9178 49.6203C50.0345 49.5425 50.0734 49.3869 49.9956 49.2703ZM49.9956 49.2703C49.9308 49.1666 49.7882 49.1277 49.6715 49.1925C49.4771 49.2962 49.2827 49.3869 49.0753 49.4258C48.8031 49.4777 48.5179 49.4647 48.2716 49.361C48.0123 49.2573 47.779 49.0758 47.5587 48.8684C47.5068 48.8166 47.455 48.7647 47.4031 48.6999L47.2346 48.5184L46.9105 48.1685L44.2921 45.3556L39.0682 39.7299L30.8241 30.8506L30.7852 30.8895L38.8868 39.8984L44.0329 45.6149L46.5994 48.4666L46.9235 48.8296L47.079 49.011C47.1309 49.0758 47.1957 49.1277 47.2475 49.1925C47.4938 49.4258 47.7661 49.6591 48.1031 49.7888C48.4401 49.9314 48.829 49.9702 49.179 49.8925C49.4512 49.8406 49.6845 49.7369 49.9178 49.6203C50.0345 49.5425 50.0734 49.3869 49.9956 49.2703ZM29.6316 30.034L20.5838 38.1615L14.8674 43.2946L12.0156 45.8611L11.6527 46.1852L11.4712 46.3408C11.4064 46.3926 11.3416 46.4574 11.2897 46.5093C11.0564 46.7556 10.836 47.0278 10.6934 47.3648C10.5509 47.7018 10.512 48.0907 10.5897 48.4407C10.6416 48.6999 10.7453 48.9462 10.862 49.1795C10.9268 49.3092 11.0953 49.348 11.2119 49.2703C11.3156 49.2055 11.3545 49.0629 11.2897 48.9462C11.186 48.7518 11.0953 48.5573 11.0564 48.3499C11.0045 48.0777 11.0175 47.7926 11.1212 47.5463C11.2249 47.287 11.4064 47.0537 11.6138 46.8333C11.6656 46.7815 11.7175 46.7296 11.7823 46.6778L11.9508 46.5093L12.3008 46.1852L15.1136 43.5668L20.7393 38.3429L29.6575 30.0599L29.6316 30.034ZM29.6316 30.034L20.5838 38.1615L14.8674 43.2946L12.0156 45.8611L11.6527 46.1852L11.4712 46.3408C11.4064 46.3926 11.3416 46.4574 11.2897 46.5093C11.0564 46.7556 10.836 47.0278 10.6934 47.3648C10.5509 47.7018 10.512 48.0907 10.5897 48.4407C10.6416 48.6999 10.7453 48.9462 10.862 49.1795C10.9268 49.3092 11.0953 49.348 11.2119 49.2703C11.3156 49.2055 11.3545 49.0629 11.2897 48.9462C11.186 48.7518 11.0953 48.5573 11.0564 48.3499C11.0045 48.0777 11.0175 47.7926 11.1212 47.5463C11.2249 47.287 11.4064 47.0537 11.6138 46.8333C11.6656 46.7815 11.7175 46.7296 11.7823 46.6778L11.9508 46.5093L12.3008 46.1852L15.1136 43.5668L20.7393 38.3429L29.6575 30.0599L29.6316 30.034ZM49.9956 49.2703C49.9308 49.1666 49.7882 49.1277 49.6715 49.1925C49.4771 49.2962 49.2827 49.3869 49.0753 49.4258C48.8031 49.4777 48.5179 49.4647 48.2716 49.361C48.0123 49.2573 47.779 49.0758 47.5587 48.8684C47.5068 48.8166 47.455 48.7647 47.4031 48.6999L47.2346 48.5184L46.9105 48.1685L44.2921 45.3556L39.0682 39.7299L30.8241 30.8506L30.7852 30.8895L38.8868 39.8984L44.0329 45.6149L46.5994 48.4666L46.9235 48.8296L47.079 49.011C47.1309 49.0758 47.1957 49.1277 47.2475 49.1925C47.4938 49.4258 47.7661 49.6591 48.1031 49.7888C48.4401 49.9314 48.829 49.9702 49.179 49.8925C49.4512 49.8406 49.6845 49.7369 49.9178 49.6203C50.0345 49.5425 50.0734 49.3869 49.9956 49.2703ZM29.6316 30.034L20.5838 38.1615L14.8674 43.2946L12.0156 45.8611L11.6527 46.1852L11.4712 46.3408C11.4064 46.3926 11.3416 46.4574 11.2897 46.5093C11.0564 46.7556 10.836 47.0278 10.6934 47.3648C10.5509 47.7018 10.512 48.0907 10.5897 48.4407C10.6416 48.6999 10.7453 48.9462 10.862 49.1795C10.9268 49.3092 11.0953 49.348 11.2119 49.2703C11.3156 49.2055 11.3545 49.0629 11.2897 48.9462C11.186 48.7518 11.0953 48.5573 11.0564 48.3499C11.0045 48.0777 11.0175 47.7926 11.1212 47.5463C11.2249 47.287 11.4064 47.0537 11.6138 46.8333C11.6656 46.7815 11.7175 46.7296 11.7823 46.6778L11.9508 46.5093L12.3008 46.1852L15.1136 43.5668L20.7393 38.3429L29.6575 30.0599L29.6316 30.034ZM49.9956 49.2703C49.9308 49.1666 49.7882 49.1277 49.6715 49.1925C49.4771 49.2962 49.2827 49.3869 49.0753 49.4258C48.8031 49.4777 48.5179 49.4647 48.2716 49.361C48.0123 49.2573 47.779 49.0758 47.5587 48.8684C47.5068 48.8166 47.455 48.7647 47.4031 48.6999L47.2346 48.5184L46.9105 48.1685L44.2921 45.3556L39.0682 39.7299L30.8241 30.8506L30.7852 30.8895L38.8868 39.8984L44.0329 45.6149L46.5994 48.4666L46.9235 48.8296L47.079 49.011C47.1309 49.0758 47.1957 49.1277 47.2475 49.1925C47.4938 49.4258 47.7661 49.6591 48.1031 49.7888C48.4401 49.9314 48.829 49.9702 49.179 49.8925C49.4512 49.8406 49.6845 49.7369 49.9178 49.6203C50.0345 49.5425 50.0734 49.3869 49.9956 49.2703ZM29.6316 30.034L20.5838 38.1615L14.8674 43.2946L12.0156 45.8611L11.6527 46.1852L11.4712 46.3408C11.4064 46.3926 11.3416 46.4574 11.2897 46.5093C11.0564 46.7556 10.836 47.0278 10.6934 47.3648C10.5509 47.7018 10.512 48.0907 10.5897 48.4407C10.6416 48.6999 10.7453 48.9462 10.862 49.1795C10.9268 49.3092 11.0953 49.348 11.2119 49.2703C11.3156 49.2055 11.3545 49.0629 11.2897 48.9462C11.186 48.7518 11.0953 48.5573 11.0564 48.3499C11.0045 48.0777 11.0175 47.7926 11.1212 47.5463C11.2249 47.287 11.4064 47.0537 11.6138 46.8333C11.6656 46.7815 11.7175 46.7296 11.7823 46.6778L11.9508 46.5093L12.3008 46.1852L15.1136 43.5668L20.7393 38.3429L29.6575 30.0599L29.6316 30.034Z" fill="#DA592F"/>
</svg>
