<svg width="291" height="84" viewBox="0 0 291 84" fill="none" xmlns="http://www.w3.org/2000/svg">
<path d="M110.726 64.7969V24.7639H127.184V29.8051H118.04V41.469H125.503V46.5596H118.04V64.7969H110.726ZM139.346 65.2417C137.27 65.2417 135.557 64.8628 134.206 64.1049C132.855 63.3142 131.834 62.1774 131.142 60.6947C130.483 59.212 130.153 57.4163 130.153 55.3076V45.7194C130.153 43.6107 130.483 41.815 131.142 40.3323C131.834 38.8496 132.855 37.7293 134.206 36.9715C135.557 36.1807 137.27 35.7853 139.346 35.7853C141.422 35.7853 143.135 36.1807 144.486 36.9715C145.87 37.7293 146.892 38.8496 147.551 40.3323C148.242 41.815 148.588 43.6107 148.588 45.7194V55.3076C148.588 57.4163 148.242 59.212 147.551 60.6947C146.892 62.1774 145.87 63.3142 144.486 64.1049C143.135 64.8628 141.422 65.2417 139.346 65.2417ZM139.396 60.5959C140.153 60.5959 140.714 60.3817 141.076 59.9534C141.438 59.525 141.669 58.9484 141.768 58.2236C141.867 57.4657 141.916 56.642 141.916 55.7524V45.2746C141.916 44.385 141.867 43.5777 141.768 42.8529C141.669 42.128 141.438 41.5514 141.076 41.123C140.714 40.6617 140.153 40.4311 139.396 40.4311C138.638 40.4311 138.078 40.6617 137.715 41.123C137.353 41.5514 137.106 42.128 136.974 42.8529C136.875 43.5777 136.826 44.385 136.826 45.2746V55.7524C136.826 56.642 136.875 57.4657 136.974 58.2236C137.106 58.9484 137.353 59.525 137.715 59.9534C138.078 60.3817 138.638 60.5959 139.396 60.5959ZM153.337 64.7969V36.2301H160.059V40.6288C161.047 38.9484 162.035 37.7458 163.024 37.0209C164.012 36.2631 165.1 35.8841 166.286 35.8841C166.484 35.8841 166.648 35.9006 166.78 35.9336C166.945 35.9336 167.126 35.95 167.324 35.983V42.9517C166.928 42.787 166.484 42.6552 165.989 42.5563C165.528 42.4245 165.05 42.3586 164.556 42.3586C163.666 42.3586 162.859 42.5728 162.134 43.0011C161.409 43.4295 160.717 44.1379 160.059 45.1263V64.7969H153.337ZM170.662 64.7969V24.7639H177.383V47.7458L184.747 36.2301H192.062L184.896 47.6964L191.914 64.7969H184.846L179.657 50.7112L177.383 53.8743V64.7969H170.662ZM196.08 64.7969V40.9253H193.016V36.2301H196.08V34.4014C196.08 32.6881 196.229 31.2054 196.525 29.9533C196.855 28.6683 197.514 27.6798 198.502 26.9879C199.524 26.296 201.056 25.95 203.099 25.95C203.725 25.95 204.318 25.983 204.878 26.0489C205.438 26.0818 206.064 26.1477 206.756 26.2466V31.2383C206.492 31.1724 206.179 31.123 205.817 31.0901C205.487 31.0242 205.174 30.9912 204.878 30.9912C204.087 30.9912 203.543 31.2383 203.247 31.7326C202.95 32.2268 202.802 32.9517 202.802 33.9072V36.2301H206.756V40.9253H202.802V64.7969H196.08ZM209.855 64.7969V36.2301H216.577V40.6288C217.565 38.9484 218.554 37.7458 219.542 37.0209C220.531 36.2631 221.618 35.8841 222.804 35.8841C223.002 35.8841 223.167 35.9006 223.299 35.9336C223.463 35.9336 223.645 35.95 223.842 35.983V42.9517C223.447 42.787 223.002 42.6552 222.508 42.5563C222.046 42.4245 221.569 42.3586 221.074 42.3586C220.185 42.3586 219.378 42.5728 218.653 43.0011C217.928 43.4295 217.236 44.1379 216.577 45.1263V64.7969H209.855ZM235.78 65.2417C233.638 65.2417 231.892 64.8463 230.541 64.0555C229.19 63.2318 228.185 62.0456 227.526 60.497C226.9 58.9155 226.587 57.0209 226.587 54.8133V46.2136C226.587 43.9402 226.9 42.0291 227.526 40.4805C228.185 38.9319 229.19 37.7622 230.541 36.9715C231.925 36.1807 233.671 35.7853 235.78 35.7853C238.053 35.7853 239.816 36.2136 241.068 37.0703C242.353 37.927 243.259 39.179 243.787 40.8265C244.347 42.441 244.627 44.4179 244.627 46.7573V50.81H233.259V56.4443C233.259 57.3669 233.342 58.1247 233.506 58.7178C233.704 59.3109 234.001 59.7392 234.396 60.0028C234.791 60.2664 235.269 60.3982 235.829 60.3982C236.422 60.3982 236.9 60.2664 237.263 60.0028C237.625 59.7063 237.889 59.2944 238.053 58.7672C238.218 58.2071 238.3 57.5151 238.3 56.6914V54.3191H244.577V56.2466C244.577 59.1461 243.852 61.3702 242.403 62.9188C240.953 64.4674 238.745 65.2417 235.78 65.2417ZM233.259 47.4987H238.3V44.7804C238.3 43.7919 238.218 43.0011 238.053 42.408C237.889 41.782 237.625 41.3372 237.263 41.0736C236.9 40.7771 236.389 40.6288 235.73 40.6288C235.137 40.6288 234.66 40.7771 234.297 41.0736C233.935 41.3701 233.671 41.8644 233.506 42.5563C233.342 43.2482 233.259 44.2367 233.259 45.5217V47.4987ZM256.947 65.2417C254.542 65.2417 252.565 64.5992 251.017 63.3142C249.468 62.0292 248.364 60.1511 247.705 57.6799L252.697 55.7524C253.092 57.301 253.62 58.4871 254.279 59.3109C254.938 60.1346 255.794 60.5465 256.849 60.5465C257.639 60.5465 258.232 60.3488 258.628 59.9534C259.023 59.558 259.221 59.0143 259.221 58.3224C259.221 57.5316 258.974 56.8232 258.48 56.1972C258.018 55.5382 257.211 54.731 256.058 53.7754L252.598 50.8595C251.346 49.7721 250.325 48.6683 249.534 47.5481C248.776 46.3949 248.397 44.9616 248.397 43.2482C248.397 41.6996 248.743 40.3817 249.435 39.2944C250.16 38.1741 251.132 37.3174 252.351 36.7243C253.603 36.0983 254.987 35.7853 256.503 35.7853C258.809 35.7853 260.654 36.4772 262.038 37.8611C263.455 39.212 264.361 40.9912 264.756 43.1988L260.358 45.0769C260.193 44.2861 259.946 43.5613 259.616 42.9023C259.32 42.2103 258.924 41.6502 258.43 41.2219C257.936 40.7935 257.359 40.5794 256.7 40.5794C256.008 40.5794 255.448 40.7935 255.02 41.2219C254.625 41.6502 254.427 42.1939 254.427 42.8529C254.427 43.413 254.657 43.9896 255.119 44.5827C255.613 45.1758 256.305 45.8512 257.195 46.609L260.704 49.7721C261.461 50.4311 262.186 51.1395 262.878 51.8973C263.57 52.6552 264.147 53.5118 264.608 54.4674C265.069 55.3899 265.3 56.4608 265.3 57.6799C265.3 59.3273 264.921 60.7112 264.163 61.8315C263.438 62.9517 262.433 63.8084 261.148 64.4015C259.896 64.9616 258.496 65.2417 256.947 65.2417ZM269.075 64.7969V24.7639H275.797V38.9484C276.786 37.9599 277.856 37.1856 279.01 36.6255C280.196 36.0654 281.481 35.7853 282.865 35.7853C284.018 35.7853 284.94 36.0818 285.632 36.6749C286.324 37.235 286.835 37.9929 287.164 38.9484C287.494 39.9039 287.659 40.9418 287.659 42.0621V64.7969H280.937V43.3965C280.937 42.5398 280.805 41.8809 280.542 41.4196C280.278 40.9583 279.767 40.7276 279.01 40.7276C278.548 40.7276 278.021 40.8594 277.428 41.123C276.868 41.3866 276.324 41.7326 275.797 42.1609V64.7969H269.075Z" fill="white"/>
<path d="M40.7504 42.3592L27.9896 53.822L19.9273 61.0616L15.9053 64.6814L15.3934 65.1385L15.1374 65.3579C15.046 65.431 14.9546 65.5224 14.8815 65.5955C14.5524 65.9429 14.2416 66.3268 14.0405 66.8021C13.8394 67.2775 13.7846 67.8259 13.8943 68.3195C13.9674 68.6852 14.1136 69.0325 14.2782 69.3616C14.3696 69.5444 14.6073 69.5993 14.7718 69.4896C14.918 69.3982 14.9729 69.1971 14.8815 69.0325C14.7352 68.7583 14.6072 68.4841 14.5524 68.1916C14.4793 67.8076 14.4976 67.4054 14.6438 67.0581C14.7901 66.6924 15.046 66.3634 15.3385 66.0526C15.4117 65.9794 15.4848 65.9063 15.5762 65.8332L15.8139 65.5955L16.3075 65.1385L20.2746 61.4455L28.209 54.0779L40.787 42.3958L40.7504 42.3592ZM40.7504 42.3592L27.9896 53.822L19.9273 61.0616L15.9053 64.6814L15.3934 65.1385L15.1374 65.3579C15.046 65.431 14.9546 65.5224 14.8815 65.5955C14.5524 65.9429 14.2416 66.3268 14.0405 66.8021C13.8394 67.2775 13.7846 67.8259 13.8943 68.3195C13.9674 68.6852 14.1136 69.0325 14.2782 69.3616C14.3696 69.5444 14.6073 69.5993 14.7718 69.4896C14.918 69.3982 14.9729 69.1971 14.8815 69.0325C14.7352 68.7583 14.6072 68.4841 14.5524 68.1916C14.4793 67.8076 14.4976 67.4054 14.6438 67.0581C14.7901 66.6924 15.046 66.3634 15.3385 66.0526C15.4117 65.9794 15.4848 65.9063 15.5762 65.8332L15.8139 65.5955L16.3075 65.1385L20.2746 61.4455L28.209 54.0779L40.787 42.3958L40.7504 42.3592ZM69.4713 69.4896C69.3799 69.3433 69.1788 69.2885 69.0142 69.3799C68.74 69.5261 68.4658 69.6541 68.1733 69.7089C67.7894 69.7821 67.3871 69.7638 67.0398 69.6175C66.6741 69.4713 66.3451 69.2153 66.0343 68.9228C65.9612 68.8497 65.888 68.7766 65.8149 68.6852L65.5772 68.4292L65.1202 67.9356L61.4272 63.9684L54.0596 56.0341L42.4323 43.511L42.3775 43.5658L53.8037 56.2717L61.0616 64.3341L64.6814 68.3561L65.1385 68.868L65.3579 69.1239C65.431 69.2153 65.5224 69.2885 65.5955 69.3799C65.9429 69.709 66.3268 70.038 66.8021 70.2208C67.2775 70.4219 67.8259 70.4768 68.3195 70.3671C68.7034 70.294 69.0325 70.1477 69.3616 69.9832C69.5261 69.8735 69.581 69.6541 69.4713 69.4896ZM40.7504 42.3592L27.9896 53.822L19.9273 61.0616L15.9053 64.6814L15.3934 65.1385L15.1374 65.3579C15.046 65.431 14.9546 65.5224 14.8815 65.5955C14.5524 65.9429 14.2416 66.3268 14.0405 66.8021C13.8394 67.2775 13.7846 67.8259 13.8943 68.3195C13.9674 68.6852 14.1136 69.0325 14.2782 69.3616C14.3696 69.5444 14.6073 69.5993 14.7718 69.4896C14.918 69.3982 14.9729 69.1971 14.8815 69.0325C14.7352 68.7583 14.6072 68.4841 14.5524 68.1916C14.4793 67.8076 14.4976 67.4054 14.6438 67.0581C14.7901 66.6924 15.046 66.3634 15.3385 66.0526C15.4117 65.9794 15.4848 65.9063 15.5762 65.8332L15.8139 65.5955L16.3075 65.1385L20.2746 61.4455L28.209 54.0779L40.787 42.3958L40.7504 42.3592ZM69.4713 69.4896C69.3799 69.3433 69.1788 69.2885 69.0142 69.3799C68.74 69.5261 68.4658 69.6541 68.1733 69.7089C67.7894 69.7821 67.3871 69.7638 67.0398 69.6175C66.6741 69.4713 66.3451 69.2153 66.0343 68.9228C65.9612 68.8497 65.888 68.7766 65.8149 68.6852L65.5772 68.4292L65.1202 67.9356L61.4272 63.9684L54.0596 56.0341L42.4323 43.511L42.3775 43.5658L53.8037 56.2717L61.0616 64.3341L64.6814 68.3561L65.1385 68.868L65.3579 69.1239C65.431 69.2153 65.5224 69.2885 65.5955 69.3799C65.9429 69.709 66.3268 70.038 66.8021 70.2208C67.2775 70.4219 67.8259 70.4768 68.3195 70.3671C68.7034 70.294 69.0325 70.1477 69.3616 69.9832C69.5261 69.8735 69.581 69.6541 69.4713 69.4896ZM40.7504 42.3592L27.9896 53.822L19.9273 61.0616L15.9053 64.6814L15.3934 65.1385L15.1374 65.3579C15.046 65.431 14.9546 65.5224 14.8815 65.5955C14.5524 65.9429 14.2416 66.3268 14.0405 66.8021C13.8394 67.2775 13.7846 67.8259 13.8943 68.3195C13.9674 68.6852 14.1136 69.0325 14.2782 69.3616C14.3696 69.5444 14.6073 69.5993 14.7718 69.4896C14.918 69.3982 14.9729 69.1971 14.8815 69.0325C14.7352 68.7583 14.6072 68.4841 14.5524 68.1916C14.4793 67.8076 14.4976 67.4054 14.6438 67.0581C14.7901 66.6924 15.046 66.3634 15.3385 66.0526C15.4117 65.9794 15.4848 65.9063 15.5762 65.8332L15.8139 65.5955L16.3075 65.1385L20.2746 61.4455L28.209 54.0779L40.787 42.3958L40.7504 42.3592ZM69.4713 69.4896C69.3799 69.3433 69.1788 69.2885 69.0142 69.3799C68.74 69.5261 68.4658 69.6541 68.1733 69.7089C67.7894 69.7821 67.3871 69.7638 67.0398 69.6175C66.6741 69.4713 66.3451 69.2153 66.0343 68.9228C65.9612 68.8497 65.888 68.7766 65.8149 68.6852L65.5772 68.4292L65.1202 67.9356L61.4272 63.9684L54.0596 56.0341L42.4323 43.511L42.3775 43.5658L53.8037 56.2717L61.0616 64.3341L64.6814 68.3561L65.1385 68.868L65.3579 69.1239C65.431 69.2153 65.5224 69.2885 65.5955 69.3799C65.9429 69.709 66.3268 70.038 66.8021 70.2208C67.2775 70.4219 67.8259 70.4768 68.3195 70.3671C68.7034 70.294 69.0325 70.1477 69.3616 69.9832C69.5261 69.8735 69.581 69.6541 69.4713 69.4896ZM69.4713 69.4896C69.3799 69.3433 69.1788 69.2885 69.0142 69.3799C68.74 69.5261 68.4658 69.6541 68.1733 69.7089C67.7894 69.7821 67.3871 69.7638 67.0398 69.6175C66.6741 69.4713 66.3451 69.2153 66.0343 68.9228C65.9612 68.8497 65.888 68.7766 65.8149 68.6852L65.5772 68.4292L65.1202 67.9356L61.4272 63.9684L54.0596 56.0341L42.4323 43.511L42.3775 43.5658L53.8037 56.2717L61.0616 64.3341L64.6814 68.3561L65.1385 68.868L65.3579 69.1239C65.431 69.2153 65.5224 69.2885 65.5955 69.3799C65.9429 69.709 66.3268 70.038 66.8021 70.2208C67.2775 70.4219 67.8259 70.4768 68.3195 70.3671C68.7034 70.294 69.0325 70.1477 69.3616 69.9832C69.5261 69.8735 69.581 69.6541 69.4713 69.4896ZM40.7504 42.3592L27.9896 53.822L19.9273 61.0616L15.9053 64.6814L15.3934 65.1385L15.1374 65.3579C15.046 65.431 14.9546 65.5224 14.8815 65.5955C14.5524 65.9429 14.2416 66.3268 14.0405 66.8021C13.8394 67.2775 13.7846 67.8259 13.8943 68.3195C13.9674 68.6852 14.1136 69.0325 14.2782 69.3616C14.3696 69.5444 14.6073 69.5993 14.7718 69.4896C14.918 69.3982 14.9729 69.1971 14.8815 69.0325C14.7352 68.7583 14.6072 68.4841 14.5524 68.1916C14.4793 67.8076 14.4976 67.4054 14.6438 67.0581C14.7901 66.6924 15.046 66.3634 15.3385 66.0526C15.4117 65.9794 15.4848 65.9063 15.5762 65.8332L15.8139 65.5955L16.3075 65.1385L20.2746 61.4455L28.209 54.0779L40.787 42.3958L40.7504 42.3592ZM40.7504 42.3592L27.9896 53.822L19.9273 61.0616L15.9053 64.6814L15.3934 65.1385L15.1374 65.3579C15.046 65.431 14.9546 65.5224 14.8815 65.5955C14.5524 65.9429 14.2416 66.3268 14.0405 66.8021C13.8394 67.2775 13.7846 67.8259 13.8943 68.3195C13.9674 68.6852 14.1136 69.0325 14.2782 69.3616C14.3696 69.5444 14.6073 69.5993 14.7718 69.4896C14.918 69.3982 14.9729 69.1971 14.8815 69.0325C14.7352 68.7583 14.6072 68.4841 14.5524 68.1916C14.4793 67.8076 14.4976 67.4054 14.6438 67.0581C14.7901 66.6924 15.046 66.3634 15.3385 66.0526C15.4117 65.9794 15.4848 65.9063 15.5762 65.8332L15.8139 65.5955L16.3075 65.1385L20.2746 61.4455L28.209 54.0779L40.787 42.3958L40.7504 42.3592ZM69.4713 69.4896C69.3799 69.3433 69.1788 69.2885 69.0142 69.3799C68.74 69.5261 68.4658 69.6541 68.1733 69.7089C67.7894 69.7821 67.3871 69.7638 67.0398 69.6175C66.6741 69.4713 66.3451 69.2153 66.0343 68.9228C65.9612 68.8497 65.888 68.7766 65.8149 68.6852L65.5772 68.4292L65.1202 67.9356L61.4272 63.9684L54.0596 56.0341L42.4323 43.511L42.3775 43.5658L53.8037 56.2717L61.0616 64.3341L64.6814 68.3561L65.1385 68.868L65.3579 69.1239C65.431 69.2153 65.5224 69.2885 65.5955 69.3799C65.9429 69.709 66.3268 70.038 66.8021 70.2208C67.2775 70.4219 67.8259 70.4768 68.3195 70.3671C68.7034 70.294 69.0325 70.1477 69.3616 69.9832C69.5261 69.8735 69.581 69.6541 69.4713 69.4896ZM69.4713 69.4896C69.3799 69.3433 69.1788 69.2885 69.0142 69.3799C68.74 69.5261 68.4658 69.6541 68.1733 69.7089C67.7894 69.7821 67.3871 69.7638 67.0398 69.6175C66.6741 69.4713 66.3451 69.2153 66.0343 68.9228C65.9612 68.8497 65.888 68.7766 65.8149 68.6852L65.5772 68.4292L65.1202 67.9356L61.4272 63.9684L54.0596 56.0341L42.4323 43.511L42.3775 43.5658L53.8037 56.2717L61.0616 64.3341L64.6814 68.3561L65.1385 68.868L65.3579 69.1239C65.431 69.2153 65.5224 69.2885 65.5955 69.3799C65.9429 69.709 66.3268 70.038 66.8021 70.2208C67.2775 70.4219 67.8259 70.4768 68.3195 70.3671C68.7034 70.294 69.0325 70.1477 69.3616 69.9832C69.5261 69.8735 69.581 69.6541 69.4713 69.4896ZM40.7504 42.3592L27.9896 53.822L19.9273 61.0616L15.9053 64.6814L15.3934 65.1385L15.1374 65.3579C15.046 65.431 14.9546 65.5224 14.8815 65.5955C14.5524 65.9429 14.2416 66.3268 14.0405 66.8021C13.8394 67.2775 13.7846 67.8259 13.8943 68.3195C13.9674 68.6852 14.1136 69.0325 14.2782 69.3616C14.3696 69.5444 14.6073 69.5993 14.7718 69.4896C14.918 69.3982 14.9729 69.1971 14.8815 69.0325C14.7352 68.7583 14.6072 68.4841 14.5524 68.1916C14.4793 67.8076 14.4976 67.4054 14.6438 67.0581C14.7901 66.6924 15.046 66.3634 15.3385 66.0526C15.4117 65.9794 15.4848 65.9063 15.5762 65.8332L15.8139 65.5955L16.3075 65.1385L20.2746 61.4455L28.209 54.0779L40.787 42.3958L40.7504 42.3592ZM40.7504 42.3592L27.9896 53.822L19.9273 61.0616L15.9053 64.6814L15.3934 65.1385L15.1374 65.3579C15.046 65.431 14.9546 65.5224 14.8815 65.5955C14.5524 65.9429 14.2416 66.3268 14.0405 66.8021C13.8394 67.2775 13.7846 67.8259 13.8943 68.3195C13.9674 68.6852 14.1136 69.0325 14.2782 69.3616C14.3696 69.5444 14.6073 69.5993 14.7718 69.4896C14.918 69.3982 14.9729 69.1971 14.8815 69.0325C14.7352 68.7583 14.6072 68.4841 14.5524 68.1916C14.4793 67.8076 14.4976 67.4054 14.6438 67.0581C14.7901 66.6924 15.046 66.3634 15.3385 66.0526C15.4117 65.9794 15.4848 65.9063 15.5762 65.8332L15.8139 65.5955L16.3075 65.1385L20.2746 61.4455L28.209 54.0779L40.787 42.3958L40.7504 42.3592ZM69.4713 69.4896C69.3799 69.3433 69.1788 69.2885 69.0142 69.3799C68.74 69.5261 68.4658 69.6541 68.1733 69.7089C67.7894 69.7821 67.3871 69.7638 67.0398 69.6175C66.6741 69.4713 66.3451 69.2153 66.0343 68.9228C65.9612 68.8497 65.888 68.7766 65.8149 68.6852L65.5772 68.4292L65.1202 67.9356L61.4272 63.9684L54.0596 56.0341L42.4323 43.511L42.3775 43.5658L53.8037 56.2717L61.0616 64.3341L64.6814 68.3561L65.1385 68.868L65.3579 69.1239C65.431 69.2153 65.5224 69.2885 65.5955 69.3799C65.9429 69.709 66.3268 70.038 66.8021 70.2208C67.2775 70.4219 67.8259 70.4768 68.3195 70.3671C68.7034 70.294 69.0325 70.1477 69.3616 69.9832C69.5261 69.8735 69.581 69.6541 69.4713 69.4896ZM69.4713 69.4896C69.3799 69.3433 69.1788 69.2885 69.0142 69.3799C68.74 69.5261 68.4658 69.6541 68.1733 69.7089C67.7894 69.7821 67.3871 69.7638 67.0398 69.6175C66.6741 69.4713 66.3451 69.2153 66.0343 68.9228C65.9612 68.8497 65.888 68.7766 65.8149 68.6852L65.5772 68.4292L65.1202 67.9356L61.4272 63.9684L54.0596 56.0341L42.4323 43.511L42.3775 43.5658L53.8037 56.2717L61.0616 64.3341L64.6814 68.3561L65.1385 68.868L65.3579 69.1239C65.431 69.2153 65.5224 69.2885 65.5955 69.3799C65.9429 69.709 66.3268 70.038 66.8021 70.2208C67.2775 70.4219 67.8259 70.4768 68.3195 70.3671C68.7034 70.294 69.0325 70.1477 69.3616 69.9832C69.5261 69.8735 69.581 69.6541 69.4713 69.4896ZM40.7504 42.3592L27.9896 53.822L19.9273 61.0616L15.9053 64.6814L15.3934 65.1385L15.1374 65.3579C15.046 65.431 14.9546 65.5224 14.8815 65.5955C14.5524 65.9429 14.2416 66.3268 14.0405 66.8021C13.8394 67.2775 13.7846 67.8259 13.8943 68.3195C13.9674 68.6852 14.1136 69.0325 14.2782 69.3616C14.3696 69.5444 14.6073 69.5993 14.7718 69.4896C14.918 69.3982 14.9729 69.1971 14.8815 69.0325C14.7352 68.7583 14.6072 68.4841 14.5524 68.1916C14.4793 67.8076 14.4976 67.4054 14.6438 67.0581C14.7901 66.6924 15.046 66.3634 15.3385 66.0526C15.4117 65.9794 15.4848 65.9063 15.5762 65.8332L15.8139 65.5955L16.3075 65.1385L20.2746 61.4455L28.209 54.0779L40.787 42.3958L40.7504 42.3592ZM40.7504 42.3592L27.9896 53.822L19.9273 61.0616L15.9053 64.6814L15.3934 65.1385L15.1374 65.3579C15.046 65.431 14.9546 65.5224 14.8815 65.5955C14.5524 65.9429 14.2416 66.3268 14.0405 66.8021C13.8394 67.2775 13.7846 67.8259 13.8943 68.3195C13.9674 68.6852 14.1136 69.0325 14.2782 69.3616C14.3696 69.5444 14.6073 69.5993 14.7718 69.4896C14.918 69.3982 14.9729 69.1971 14.8815 69.0325C14.7352 68.7583 14.6072 68.4841 14.5524 68.1916C14.4793 67.8076 14.4976 67.4054 14.6438 67.0581C14.7901 66.6924 15.046 66.3634 15.3385 66.0526C15.4117 65.9794 15.4848 65.9063 15.5762 65.8332L15.8139 65.5955L16.3075 65.1385L20.2746 61.4455L28.209 54.0779L40.787 42.3958L40.7504 42.3592ZM69.4713 69.4896C69.3799 69.3433 69.1788 69.2885 69.0142 69.3799C68.74 69.5261 68.4658 69.6541 68.1733 69.7089C67.7894 69.7821 67.3871 69.7638 67.0398 69.6175C66.6741 69.4713 66.3451 69.2153 66.0343 68.9228C65.9612 68.8497 65.888 68.7766 65.8149 68.6852L65.5772 68.4292L65.1202 67.9356L61.4272 63.9684L54.0596 56.0341L42.4323 43.511L42.3775 43.5658L53.8037 56.2717L61.0616 64.3341L64.6814 68.3561L65.1385 68.868L65.3579 69.1239C65.431 69.2153 65.5224 69.2885 65.5955 69.3799C65.9429 69.709 66.3268 70.038 66.8021 70.2208C67.2775 70.4219 67.8259 70.4768 68.3195 70.3671C68.7034 70.294 69.0325 70.1477 69.3616 69.9832C69.5261 69.8735 69.581 69.6541 69.4713 69.4896ZM69.4713 69.4896C69.3799 69.3433 69.1788 69.2885 69.0142 69.3799C68.74 69.5261 68.4658 69.6541 68.1733 69.7089C67.7894 69.7821 67.3871 69.7638 67.0398 69.6175C66.6741 69.4713 66.3451 69.2153 66.0343 68.9228C65.9612 68.8497 65.888 68.7766 65.8149 68.6852L65.5772 68.4292L65.1202 67.9356L61.4272 63.9684L54.0596 56.0341L42.4323 43.511L42.3775 43.5658L53.8037 56.2717L61.0616 64.3341L64.6814 68.3561L65.1385 68.868L65.3579 69.1239C65.431 69.2153 65.5224 69.2885 65.5955 69.3799C65.9429 69.709 66.3268 70.038 66.8021 70.2208C67.2775 70.4219 67.8259 70.4768 68.3195 70.3671C68.7034 70.294 69.0325 70.1477 69.3616 69.9832C69.5261 69.8735 69.581 69.6541 69.4713 69.4896ZM27.9896 53.822L19.9273 61.0616L15.9053 64.6814L15.3934 65.1385L15.1374 65.3579C15.046 65.431 14.9546 65.5224 14.8815 65.5955C14.5524 65.9429 14.2416 66.3268 14.0405 66.8021C13.8394 67.2775 13.7846 67.8259 13.8943 68.3195C13.9674 68.6852 14.1136 69.0325 14.2782 69.3616C14.3696 69.5444 14.6073 69.5993 14.7718 69.4896C14.918 69.3982 14.9729 69.1971 14.8815 69.0325C14.7352 68.7583 14.6072 68.4841 14.5524 68.1916C14.4793 67.8076 14.4976 67.4054 14.6438 67.0581C14.7901 66.6924 15.046 66.3634 15.3385 66.0526C15.4117 65.9794 15.4848 65.9063 15.5762 65.8332L15.8139 65.5955L16.3075 65.1385L20.2746 61.4455L28.209 54.0779L40.787 42.3958L40.7321 42.3409L27.9896 53.822ZM41.7011 0C18.6658 0 0 18.6658 0 41.701C0 64.7363 18.6658 83.4021 41.7011 83.4021C64.7363 83.4021 83.4021 64.7363 83.4021 41.701C83.4021 18.6658 64.7363 0 41.7011 0ZM41.7011 8.09889C48.1911 8.09889 54.2607 9.94536 59.4162 13.1447C58.7581 13.3458 58.0999 13.6017 57.4235 13.8943C52.7799 11.2617 47.405 9.74426 41.7011 9.74426C35.4669 9.74426 29.6533 11.5359 24.7354 14.6438L23.4191 13.5286C28.6843 10.0916 34.955 8.09889 41.7011 8.09889ZM8.09889 41.701C8.09889 34.955 10.0916 28.666 13.5286 23.4009L14.6438 24.7172C11.5359 29.635 9.74426 35.4669 9.74426 41.6828C9.74426 49.0869 12.2854 55.9244 16.5268 61.3358L15.302 62.451C10.7863 56.7654 8.09889 49.544 8.09889 41.701ZM41.7011 75.3032C34.2786 75.3032 27.4046 72.89 21.8469 68.7949L22.9621 67.57C28.2273 71.3909 34.6991 73.6579 41.7011 73.6579C48.9041 73.6579 55.577 71.2629 60.9336 67.2043L62.0488 68.4292C56.3997 72.7437 49.3429 75.3032 41.7011 75.3032ZM69.8552 69.8552C68.74 70.9704 66.9301 70.9704 65.8149 69.8552C65.7783 69.8186 65.7601 69.8004 65.7235 69.7638L42.1033 43.8583L18.483 69.7638C17.3861 70.9704 15.5031 71.007 14.3513 69.8552C13.1995 68.7034 13.2361 66.8204 14.4427 65.7418L40.4396 42.0484L36.3262 37.5328C35.796 36.9478 35.0099 36.6735 34.2237 36.7832L30.3297 37.3317C28.9037 37.5328 27.4594 36.9843 26.5271 35.8874L12.7242 19.6713C12.6511 19.5799 12.7791 19.452 12.8705 19.5251L25.613 30.5491C25.7958 30.7136 26.0517 30.4577 25.9055 30.2749L15.0643 17.2398C14.9912 17.1484 15.1191 17.0205 15.2105 17.0936L27.6057 27.8799C27.7885 28.0445 28.0627 27.7885 27.8982 27.5874L17.1119 15.1923C17.0387 15.1009 17.1484 14.9729 17.2581 15.046L30.2931 25.8872C30.4942 26.0517 30.7319 25.7775 30.5856 25.5947L19.5617 12.8522C19.4885 12.7608 19.6165 12.6328 19.7079 12.7059L35.924 26.5088C37.0209 27.4412 37.5693 28.8671 37.3682 30.3114L36.8198 34.2055C36.7101 34.9916 36.9843 35.7777 37.5693 36.3079L42.1581 40.4944L46.0156 36.966C46.7469 36.3079 46.9845 35.2658 46.6372 34.3334C45.1746 30.5308 47.1673 24.6623 51.8475 20.0004C57.4418 14.4061 64.7546 12.6328 68.1733 16.0515C71.592 19.4702 69.8369 26.783 64.2244 32.3773C59.5442 37.0574 53.694 39.0502 49.8914 37.5876C48.9773 37.2403 47.9169 37.4779 47.2588 38.2092L43.8035 41.9936L69.8004 65.6869C70.9704 66.8204 71.007 68.7034 69.8552 69.8552ZM68.4292 62.0488L67.2043 60.9336C71.2446 55.577 73.6579 48.9224 73.6579 41.701C73.6579 36.4724 72.3964 31.5363 70.166 27.1669C70.4768 26.4905 70.751 25.8324 70.9704 25.1742C73.731 30.0555 75.3215 35.7046 75.3215 41.701C75.3032 49.3429 72.7437 56.3997 68.4292 62.0488ZM69.0142 69.3799C68.74 69.5261 68.4658 69.6541 68.1733 69.7089C67.7894 69.7821 67.3871 69.7638 67.0398 69.6175C66.6741 69.4713 66.3451 69.2153 66.0343 68.9228C65.9612 68.8497 65.888 68.7766 65.8149 68.6852L65.5772 68.4292L65.1202 67.9356L61.4272 63.9684L54.0596 56.0341L42.4323 43.511L42.3775 43.5658L53.8037 56.2717L61.0616 64.3341L64.6814 68.3561L65.1385 68.868L65.3579 69.1239C65.431 69.2153 65.5224 69.2885 65.5955 69.3799C65.9429 69.709 66.3268 70.038 66.8021 70.2208C67.2775 70.4219 67.8259 70.4768 68.3195 70.3671C68.7034 70.294 69.0325 70.1477 69.3616 69.9832C69.5444 69.8918 69.5993 69.6541 69.4896 69.4896C69.3799 69.3433 69.1788 69.2885 69.0142 69.3799ZM27.9896 53.822L19.9273 61.0616L15.9053 64.6814L15.3934 65.1385L15.1374 65.3579C15.046 65.431 14.9546 65.5224 14.8815 65.5955C14.5524 65.9429 14.2416 66.3268 14.0405 66.8021C13.8394 67.2775 13.7846 67.8259 13.8943 68.3195C13.9674 68.6852 14.1136 69.0325 14.2782 69.3616C14.3696 69.5444 14.6073 69.5993 14.7718 69.4896C14.918 69.3982 14.9729 69.1971 14.8815 69.0325C14.7352 68.7583 14.6072 68.4841 14.5524 68.1916C14.4793 67.8076 14.4976 67.4054 14.6438 67.0581C14.7901 66.6924 15.046 66.3634 15.3385 66.0526C15.4117 65.9794 15.4848 65.9063 15.5762 65.8332L15.8139 65.5955L16.3075 65.1385L20.2746 61.4455L28.209 54.0779L40.787 42.3958L40.7321 42.3409L27.9896 53.822ZM40.7504 42.3592L27.9896 53.822L19.9273 61.0616L15.9053 64.6814L15.3934 65.1385L15.1374 65.3579C15.046 65.431 14.9546 65.5224 14.8815 65.5955C14.5524 65.9429 14.2416 66.3268 14.0405 66.8021C13.8394 67.2775 13.7846 67.8259 13.8943 68.3195C13.9674 68.6852 14.1136 69.0325 14.2782 69.3616C14.3696 69.5444 14.6073 69.5993 14.7718 69.4896C14.918 69.3982 14.9729 69.1971 14.8815 69.0325C14.7352 68.7583 14.6072 68.4841 14.5524 68.1916C14.4793 67.8076 14.4976 67.4054 14.6438 67.0581C14.7901 66.6924 15.046 66.3634 15.3385 66.0526C15.4117 65.9794 15.4848 65.9063 15.5762 65.8332L15.8139 65.5955L16.3075 65.1385L20.2746 61.4455L28.209 54.0779L40.787 42.3958L40.7504 42.3592ZM69.4713 69.4896C69.3799 69.3433 69.1788 69.2885 69.0142 69.3799C68.74 69.5261 68.4658 69.6541 68.1733 69.7089C67.7894 69.7821 67.3871 69.7638 67.0398 69.6175C66.6741 69.4713 66.3451 69.2153 66.0343 68.9228C65.9612 68.8497 65.888 68.7766 65.8149 68.6852L65.5772 68.4292L65.1202 67.9356L61.4272 63.9684L54.0596 56.0341L42.4323 43.511L42.3775 43.5658L53.8037 56.2717L61.0616 64.3341L64.6814 68.3561L65.1385 68.868L65.3579 69.1239C65.431 69.2153 65.5224 69.2885 65.5955 69.3799C65.9429 69.709 66.3268 70.038 66.8021 70.2208C67.2775 70.4219 67.8259 70.4768 68.3195 70.3671C68.7034 70.294 69.0325 70.1477 69.3616 69.9832C69.5261 69.8735 69.581 69.6541 69.4713 69.4896ZM69.4713 69.4896C69.3799 69.3433 69.1788 69.2885 69.0142 69.3799C68.74 69.5261 68.4658 69.6541 68.1733 69.7089C67.7894 69.7821 67.3871 69.7638 67.0398 69.6175C66.6741 69.4713 66.3451 69.2153 66.0343 68.9228C65.9612 68.8497 65.888 68.7766 65.8149 68.6852L65.5772 68.4292L65.1202 67.9356L61.4272 63.9684L54.0596 56.0341L42.4323 43.511L42.3775 43.5658L53.8037 56.2717L61.0616 64.3341L64.6814 68.3561L65.1385 68.868L65.3579 69.1239C65.431 69.2153 65.5224 69.2885 65.5955 69.3799C65.9429 69.709 66.3268 70.038 66.8021 70.2208C67.2775 70.4219 67.8259 70.4768 68.3195 70.3671C68.7034 70.294 69.0325 70.1477 69.3616 69.9832C69.5261 69.8735 69.581 69.6541 69.4713 69.4896ZM40.7504 42.3592L27.9896 53.822L19.9273 61.0616L15.9053 64.6814L15.3934 65.1385L15.1374 65.3579C15.046 65.431 14.9546 65.5224 14.8815 65.5955C14.5524 65.9429 14.2416 66.3268 14.0405 66.8021C13.8394 67.2775 13.7846 67.8259 13.8943 68.3195C13.9674 68.6852 14.1136 69.0325 14.2782 69.3616C14.3696 69.5444 14.6073 69.5993 14.7718 69.4896C14.918 69.3982 14.9729 69.1971 14.8815 69.0325C14.7352 68.7583 14.6072 68.4841 14.5524 68.1916C14.4793 67.8076 14.4976 67.4054 14.6438 67.0581C14.7901 66.6924 15.046 66.3634 15.3385 66.0526C15.4117 65.9794 15.4848 65.9063 15.5762 65.8332L15.8139 65.5955L16.3075 65.1385L20.2746 61.4455L28.209 54.0779L40.787 42.3958L40.7504 42.3592ZM40.7504 42.3592L27.9896 53.822L19.9273 61.0616L15.9053 64.6814L15.3934 65.1385L15.1374 65.3579C15.046 65.431 14.9546 65.5224 14.8815 65.5955C14.5524 65.9429 14.2416 66.3268 14.0405 66.8021C13.8394 67.2775 13.7846 67.8259 13.8943 68.3195C13.9674 68.6852 14.1136 69.0325 14.2782 69.3616C14.3696 69.5444 14.6073 69.5993 14.7718 69.4896C14.918 69.3982 14.9729 69.1971 14.8815 69.0325C14.7352 68.7583 14.6072 68.4841 14.5524 68.1916C14.4793 67.8076 14.4976 67.4054 14.6438 67.0581C14.7901 66.6924 15.046 66.3634 15.3385 66.0526C15.4117 65.9794 15.4848 65.9063 15.5762 65.8332L15.8139 65.5955L16.3075 65.1385L20.2746 61.4455L28.209 54.0779L40.787 42.3958L40.7504 42.3592ZM69.4713 69.4896C69.3799 69.3433 69.1788 69.2885 69.0142 69.3799C68.74 69.5261 68.4658 69.6541 68.1733 69.7089C67.7894 69.7821 67.3871 69.7638 67.0398 69.6175C66.6741 69.4713 66.3451 69.2153 66.0343 68.9228C65.9612 68.8497 65.888 68.7766 65.8149 68.6852L65.5772 68.4292L65.1202 67.9356L61.4272 63.9684L54.0596 56.0341L42.4323 43.511L42.3775 43.5658L53.8037 56.2717L61.0616 64.3341L64.6814 68.3561L65.1385 68.868L65.3579 69.1239C65.431 69.2153 65.5224 69.2885 65.5955 69.3799C65.9429 69.709 66.3268 70.038 66.8021 70.2208C67.2775 70.4219 67.8259 70.4768 68.3195 70.3671C68.7034 70.294 69.0325 70.1477 69.3616 69.9832C69.5261 69.8735 69.581 69.6541 69.4713 69.4896ZM69.4713 69.4896C69.3799 69.3433 69.1788 69.2885 69.0142 69.3799C68.74 69.5261 68.4658 69.6541 68.1733 69.7089C67.7894 69.7821 67.3871 69.7638 67.0398 69.6175C66.6741 69.4713 66.3451 69.2153 66.0343 68.9228C65.9612 68.8497 65.888 68.7766 65.8149 68.6852L65.5772 68.4292L65.1202 67.9356L61.4272 63.9684L54.0596 56.0341L42.4323 43.511L42.3775 43.5658L53.8037 56.2717L61.0616 64.3341L64.6814 68.3561L65.1385 68.868L65.3579 69.1239C65.431 69.2153 65.5224 69.2885 65.5955 69.3799C65.9429 69.709 66.3268 70.038 66.8021 70.2208C67.2775 70.4219 67.8259 70.4768 68.3195 70.3671C68.7034 70.294 69.0325 70.1477 69.3616 69.9832C69.5261 69.8735 69.581 69.6541 69.4713 69.4896ZM40.7504 42.3592L27.9896 53.822L19.9273 61.0616L15.9053 64.6814L15.3934 65.1385L15.1374 65.3579C15.046 65.431 14.9546 65.5224 14.8815 65.5955C14.5524 65.9429 14.2416 66.3268 14.0405 66.8021C13.8394 67.2775 13.7846 67.8259 13.8943 68.3195C13.9674 68.6852 14.1136 69.0325 14.2782 69.3616C14.3696 69.5444 14.6073 69.5993 14.7718 69.4896C14.918 69.3982 14.9729 69.1971 14.8815 69.0325C14.7352 68.7583 14.6072 68.4841 14.5524 68.1916C14.4793 67.8076 14.4976 67.4054 14.6438 67.0581C14.7901 66.6924 15.046 66.3634 15.3385 66.0526C15.4117 65.9794 15.4848 65.9063 15.5762 65.8332L15.8139 65.5955L16.3075 65.1385L20.2746 61.4455L28.209 54.0779L40.787 42.3958L40.7504 42.3592ZM40.7504 42.3592L27.9896 53.822L19.9273 61.0616L15.9053 64.6814L15.3934 65.1385L15.1374 65.3579C15.046 65.431 14.9546 65.5224 14.8815 65.5955C14.5524 65.9429 14.2416 66.3268 14.0405 66.8021C13.8394 67.2775 13.7846 67.8259 13.8943 68.3195C13.9674 68.6852 14.1136 69.0325 14.2782 69.3616C14.3696 69.5444 14.6073 69.5993 14.7718 69.4896C14.918 69.3982 14.9729 69.1971 14.8815 69.0325C14.7352 68.7583 14.6072 68.4841 14.5524 68.1916C14.4793 67.8076 14.4976 67.4054 14.6438 67.0581C14.7901 66.6924 15.046 66.3634 15.3385 66.0526C15.4117 65.9794 15.4848 65.9063 15.5762 65.8332L15.8139 65.5955L16.3075 65.1385L20.2746 61.4455L28.209 54.0779L40.787 42.3958L40.7504 42.3592ZM69.4713 69.4896C69.3799 69.3433 69.1788 69.2885 69.0142 69.3799C68.74 69.5261 68.4658 69.6541 68.1733 69.7089C67.7894 69.7821 67.3871 69.7638 67.0398 69.6175C66.6741 69.4713 66.3451 69.2153 66.0343 68.9228C65.9612 68.8497 65.888 68.7766 65.8149 68.6852L65.5772 68.4292L65.1202 67.9356L61.4272 63.9684L54.0596 56.0341L42.4323 43.511L42.3775 43.5658L53.8037 56.2717L61.0616 64.3341L64.6814 68.3561L65.1385 68.868L65.3579 69.1239C65.431 69.2153 65.5224 69.2885 65.5955 69.3799C65.9429 69.709 66.3268 70.038 66.8021 70.2208C67.2775 70.4219 67.8259 70.4768 68.3195 70.3671C68.7034 70.294 69.0325 70.1477 69.3616 69.9832C69.5261 69.8735 69.581 69.6541 69.4713 69.4896ZM69.4713 69.4896C69.3799 69.3433 69.1788 69.2885 69.0142 69.3799C68.74 69.5261 68.4658 69.6541 68.1733 69.7089C67.7894 69.7821 67.3871 69.7638 67.0398 69.6175C66.6741 69.4713 66.3451 69.2153 66.0343 68.9228C65.9612 68.8497 65.888 68.7766 65.8149 68.6852L65.5772 68.4292L65.1202 67.9356L61.4272 63.9684L54.0596 56.0341L42.4323 43.511L42.3775 43.5658L53.8037 56.2717L61.0616 64.3341L64.6814 68.3561L65.1385 68.868L65.3579 69.1239C65.431 69.2153 65.5224 69.2885 65.5955 69.3799C65.9429 69.709 66.3268 70.038 66.8021 70.2208C67.2775 70.4219 67.8259 70.4768 68.3195 70.3671C68.7034 70.294 69.0325 70.1477 69.3616 69.9832C69.5261 69.8735 69.581 69.6541 69.4713 69.4896ZM40.7504 42.3592L27.9896 53.822L19.9273 61.0616L15.9053 64.6814L15.3934 65.1385L15.1374 65.3579C15.046 65.431 14.9546 65.5224 14.8815 65.5955C14.5524 65.9429 14.2416 66.3268 14.0405 66.8021C13.8394 67.2775 13.7846 67.8259 13.8943 68.3195C13.9674 68.6852 14.1136 69.0325 14.2782 69.3616C14.3696 69.5444 14.6073 69.5993 14.7718 69.4896C14.918 69.3982 14.9729 69.1971 14.8815 69.0325C14.7352 68.7583 14.6072 68.4841 14.5524 68.1916C14.4793 67.8076 14.4976 67.4054 14.6438 67.0581C14.7901 66.6924 15.046 66.3634 15.3385 66.0526C15.4117 65.9794 15.4848 65.9063 15.5762 65.8332L15.8139 65.5955L16.3075 65.1385L20.2746 61.4455L28.209 54.0779L40.787 42.3958L40.7504 42.3592ZM40.7504 42.3592L27.9896 53.822L19.9273 61.0616L15.9053 64.6814L15.3934 65.1385L15.1374 65.3579C15.046 65.431 14.9546 65.5224 14.8815 65.5955C14.5524 65.9429 14.2416 66.3268 14.0405 66.8021C13.8394 67.2775 13.7846 67.8259 13.8943 68.3195C13.9674 68.6852 14.1136 69.0325 14.2782 69.3616C14.3696 69.5444 14.6073 69.5993 14.7718 69.4896C14.918 69.3982 14.9729 69.1971 14.8815 69.0325C14.7352 68.7583 14.6072 68.4841 14.5524 68.1916C14.4793 67.8076 14.4976 67.4054 14.6438 67.0581C14.7901 66.6924 15.046 66.3634 15.3385 66.0526C15.4117 65.9794 15.4848 65.9063 15.5762 65.8332L15.8139 65.5955L16.3075 65.1385L20.2746 61.4455L28.209 54.0779L40.787 42.3958L40.7504 42.3592ZM69.4713 69.4896C69.3799 69.3433 69.1788 69.2885 69.0142 69.3799C68.74 69.5261 68.4658 69.6541 68.1733 69.7089C67.7894 69.7821 67.3871 69.7638 67.0398 69.6175C66.6741 69.4713 66.3451 69.2153 66.0343 68.9228C65.9612 68.8497 65.888 68.7766 65.8149 68.6852L65.5772 68.4292L65.1202 67.9356L61.4272 63.9684L54.0596 56.0341L42.4323 43.511L42.3775 43.5658L53.8037 56.2717L61.0616 64.3341L64.6814 68.3561L65.1385 68.868L65.3579 69.1239C65.431 69.2153 65.5224 69.2885 65.5955 69.3799C65.9429 69.709 66.3268 70.038 66.8021 70.2208C67.2775 70.4219 67.8259 70.4768 68.3195 70.3671C68.7034 70.294 69.0325 70.1477 69.3616 69.9832C69.5261 69.8735 69.581 69.6541 69.4713 69.4896ZM40.7504 42.3592L27.9896 53.822L19.9273 61.0616L15.9053 64.6814L15.3934 65.1385L15.1374 65.3579C15.046 65.431 14.9546 65.5224 14.8815 65.5955C14.5524 65.9429 14.2416 66.3268 14.0405 66.8021C13.8394 67.2775 13.7846 67.8259 13.8943 68.3195C13.9674 68.6852 14.1136 69.0325 14.2782 69.3616C14.3696 69.5444 14.6073 69.5993 14.7718 69.4896C14.918 69.3982 14.9729 69.1971 14.8815 69.0325C14.7352 68.7583 14.6072 68.4841 14.5524 68.1916C14.4793 67.8076 14.4976 67.4054 14.6438 67.0581C14.7901 66.6924 15.046 66.3634 15.3385 66.0526C15.4117 65.9794 15.4848 65.9063 15.5762 65.8332L15.8139 65.5955L16.3075 65.1385L20.2746 61.4455L28.209 54.0779L40.787 42.3958L40.7504 42.3592ZM69.4713 69.4896C69.3799 69.3433 69.1788 69.2885 69.0142 69.3799C68.74 69.5261 68.4658 69.6541 68.1733 69.7089C67.7894 69.7821 67.3871 69.7638 67.0398 69.6175C66.6741 69.4713 66.3451 69.2153 66.0343 68.9228C65.9612 68.8497 65.888 68.7766 65.8149 68.6852L65.5772 68.4292L65.1202 67.9356L61.4272 63.9684L54.0596 56.0341L42.4323 43.511L42.3775 43.5658L53.8037 56.2717L61.0616 64.3341L64.6814 68.3561L65.1385 68.868L65.3579 69.1239C65.431 69.2153 65.5224 69.2885 65.5955 69.3799C65.9429 69.709 66.3268 70.038 66.8021 70.2208C67.2775 70.4219 67.8259 70.4768 68.3195 70.3671C68.7034 70.294 69.0325 70.1477 69.3616 69.9832C69.5261 69.8735 69.581 69.6541 69.4713 69.4896ZM40.7504 42.3592L27.9896 53.822L19.9273 61.0616L15.9053 64.6814L15.3934 65.1385L15.1374 65.3579C15.046 65.431 14.9546 65.5224 14.8815 65.5955C14.5524 65.9429 14.2416 66.3268 14.0405 66.8021C13.8394 67.2775 13.7846 67.8259 13.8943 68.3195C13.9674 68.6852 14.1136 69.0325 14.2782 69.3616C14.3696 69.5444 14.6073 69.5993 14.7718 69.4896C14.918 69.3982 14.9729 69.1971 14.8815 69.0325C14.7352 68.7583 14.6072 68.4841 14.5524 68.1916C14.4793 67.8076 14.4976 67.4054 14.6438 67.0581C14.7901 66.6924 15.046 66.3634 15.3385 66.0526C15.4117 65.9794 15.4848 65.9063 15.5762 65.8332L15.8139 65.5955L16.3075 65.1385L20.2746 61.4455L28.209 54.0779L40.787 42.3958L40.7504 42.3592Z" fill="white"/>
</svg>
